<svg viewBox="33.225 150.424 819.55 575.152" xmlns="http://www.w3.org/2000/svg" overflow="visible">
    <g id="Master/Spot Illustrations/Home Vacations" stroke="none" stroke-width="1" fill="none" fill-rule="evenodd">
        <g id="Group-69" transform="translate(33.000000, 157.000000)">
            <g id="Group-11" transform="translate(0.000000, 0.982000)">
                <g id="Group-3" transform="translate(0.000000, 320.000000)" fill="#AA99F2">
                    <path d="M795.7024,161.2182 C789.7404,155.4762 767.0574,149.6582 756.1144,145.4542 C741.8154,139.9612 727.1024,134.8512 713.2404,129.3822 C674.4344,114.0722 634.5304,99.9132 592.9384,87.2572 C508.5994,61.5952 416.1354,31.2602 335.3584,3.2692 C311.3314,-5.0568 290.8314,6.0022 265.1844,8.6112 C225.8514,12.6112 206.5184,18.6112 171.8514,23.9442 C141.2514,28.6512 118.5184,34.6112 90.5184,39.2772 C74.1574,42.0032 11.1104,46.7692 3.3804,51.9082 C2.3104,51.4042 -2.6376,57.1622 1.8514,61.2772 C52.0304,84.9532 103.0874,108.1962 159.1844,126.6112 C212.2934,144.0442 425.7764,240.3802 435.8514,241.9442 C447.8344,243.8062 632.2784,198.7822 643.8514,198.6112 C693.8724,197.8692 752.0184,175.0512 783.0444,171.8482 C800.7754,170.0182 797.9814,163.4172 795.7024,161.2182" id="Fill-1"/>
                </g>
                <g id="Group-6" transform="translate(313.000000, 0.000000)" fill="#AA99F2">
                    <path d="M506.7844,176.0512 C506.1014,153.9262 506.7394,112.3392 455.9034,102.1302 C424.7614,95.8772 298.7904,64.0002 266.2234,56.7172 C237.2224,50.2292 103.5854,8.3482 67.2644,2.8582 C60.0404,1.7642 31.7844,-3.9488 18.0714,4.8112 C7.4214,11.6152 8.8514,34.9612 8.7334,45.9232 C7.9544,118.3422 -11.2156,298.0512 12.7844,322.0512 C21.0444,330.3112 123.0244,358.4962 157.1534,375.9692 C214.7314,405.4462 276.4504,412.1302 336.0404,436.3462 C368.9774,449.7312 401.6554,459.5612 435.2294,471.0942 C445.0434,474.4642 474.5124,490.8192 479.7094,485.7052 L481.1864,484.1352 C485.4404,485.2932 496.2844,481.7172 497.4504,466.7172 C499.0734,445.8522 498.7094,427.4922 500.7844,405.3852 C504.3934,366.9302 503.3884,326.0762 504.4504,287.3852 C505.4684,250.3562 507.9234,212.9342 506.7844,176.0512" id="Fill-4"/>
                </g>
                <path d="M336.7845,27.0511 C336.7845,27.0511 372.2385,34.5491 385.0785,37.3321 C403.4385,41.3151 661.0555,104.1841 701.9735,115.0161 C722.9215,120.5611 787.7845,135.5511 787.7845,135.5511 C787.7845,135.5511 786.2845,194.5511 785.7125,217.2441 C785.1225,240.7291 779.2145,427.8441 780.2395,451.3071 C754.6305,447.9901 735.1145,433.4401 710.0305,428.2461 C679.3355,421.8931 649.9305,411.9591 620.7515,400.4161 C550.9415,372.8011 477.0145,359.7331 406.3445,330.3111 C391.7705,324.2421 331.2845,303.0511 331.2845,303.0511 C331.2845,303.0511 332.9135,233.8991 331.4505,205.3851 C329.7315,171.8641 330.7235,138.8241 332.3965,105.3461 C333.1625,90.0281 336.7845,27.0511 336.7845,27.0511" id="Fill-7" fill="#FD839D"/>
                <path d="M542.1184,57.0492 C533.9674,56.3012 531.7064,63.6022 536.8084,66.9592 C543.8754,71.6042 549.8134,65.7212 547.8574,60.4212 C547.2144,58.6782 544.0714,57.2272 542.1184,57.0492" id="Fill-9" fill="#556EF8"/>
            </g>
            <g id="Group-21" transform="translate(327.000000, 50.982000)">
                <g id="Group-14" transform="translate(0.000000, 161.000000)" fill="#0042FF">
                    <path d="M4.55201604,-8.52651283e-14 C24.870016,-8.52651283e-14 34.5756,3.405 54.4556,8.507 C71.3876,12.85 86.8366,24.508 103.7866,30.303 C121.0776,36.215 136.8666,36.737 154.9386,38.284 C170.5896,39.621 186.8186,48.487 201.2346,54.362 C214.1536,59.627 227.2906,65.061 240.2106,70.303 C255.3886,76.461 271.6236,76.166 287.2586,80.061 C314.5196,86.852 336.9286,107.089 364.2346,114.11 C383.2066,118.987 402.7126,118.799 421.4646,123.03 C435.9176,126.289 443.2116,134.642117 456.2396,139.985117 L456.2396,249.307 L0.2846,102.551 L4.55201604,-8.52651283e-14 Z" id="Fill-12"/>
                </g>
                <g id="Group-17" transform="translate(214.000000, 74.000000)" fill="#000">
                    <path d="M126.626,80.052 C119.44,57.975 75.606,50.882 57.472,36.765 C59.339,37.413 70.341,34.429 71.901,34.798 C68.205,28.284 59.844,23.886 54.456,18.3 C54.456,18.3 98.542,36.593 89.799,20.223 C103.958,18.694 127.321,36.977 133.387,43.011 C131.684,36.366 131.462,28.557 134.319,18.61 C135.183,19.491 143.601,26.864 144.493,27.71 C156.692,8.03 176.212,0.018 176.212,0.018 C176.212,0.018 166.696,29.317 169.705,38.333 C172.044,45.345 188.208,33.456 188.208,33.456 C188.208,33.456 154.761,77.864 155.778,98.589 C166.86,71.073 189.302,40.309 222.874,56.27 C194.206,63.063 221.052,73.432 213.114,80.044 C205.979,85.987 190.188,84.598 197.46,97.89 C185.749,99.792 175.602,88.401 161.165,106.95 C169.55,118.753 242.0386,209.706117 242.2396,226.985117 C242.3896,239.911117 242.2396,282.6404 242.2396,282 C209.3546,222.037 182.683,153.71 136.294,101.526 C126.647,110.966 119.007,118.788 106.198,124.614 C107.692,117.745 106.981,113.569 106.981,113.569 C95.899,122.622 79.226,128.37 79.226,128.37 L83.764,118.872 C56.251,124.364 42.729,136.391 42.729,136.391 C42.22,118.618 23.515,140.038 14.667,137.323 C20.503,122.595 34.116,103.134 50.559,95.28 L48.745,104.643 C59.708,94.061 73.851,90.057 73.851,90.057 C73.851,90.057 58.657,94.268 35.917,87.095 C36.616,86.184 44.459,83.263 44.978,82.35 C35.786,81.845 24.952,83.823 17.06,79.003 C23.72,65.501 1.622,75.239 -5.68434189e-14,66.411 C-5.68434189e-14,66.411 61.131,39.204 126.626,80.052 Z" id="Fill-15"/>
                </g>
                <g id="Group-20" transform="translate(70.000000, 0.000000)" fill="#FFC5EB">
                    <path d="M34.7386,0.807 C10.6186,3.866 0.0176,25.68 0.2386,45.33 C0.4606,65.024 14.1266,88.258 30.3126,99.633 C54.7956,116.834 96.6626,122.711 117.9876,97.055 C135.1526,76.407 140.2046,34.723 115.9646,18.561 C95.9316,5.205 60.5776,-2.47 34.7386,0.807" id="Fill-18"/>
                </g>
            </g>
            <g id="Group-68" transform="translate(35.000000, 326.982000)" fill="#556EF8">
                <path d="M288.0481,0.6029 C288.1651,0.5679 288.2551,0.5529 288.2551,0.5529 C288.2551,0.5529 287.7781,0.4909 288.0481,0.6029" id="Fill-22"/>
                <path d="M678.4465,153.2006 C660.7905,147.4936 642.5305,143.4296 624.5875,138.7486 C643.8215,135.7706 663.0075,132.6446 682.0275,128.4876 C698.7775,132.5366 715.6135,136.4296 731.9405,142.0016 C715.6325,149.4056 695.9325,150.5676 678.4465,153.2006 M498.0505,185.1656 C485.6085,178.9176 471.6755,175.8956 458.8055,171.2556 C457.2255,170.6856 455.6355,170.0426 454.0745,169.4236 C477.7555,163.7986 501.5225,158.6346 525.4635,154.2326 C530.1765,155.6366 535.0675,156.8746 539.9585,158.0556 C552.5445,161.0966 564.8975,166.1986 577.9485,168.1696 C575.2065,168.6306 572.7345,169.0486 570.6245,169.4216 C546.2665,173.7316 522.0535,178.8996 498.0505,185.1656 M414.2075,207.0896 C398.4755,204.7986 382.4035,200.7166 367.3605,193.9076 C391.8915,186.8306 416.2035,179.2086 440.9095,172.7146 C445.4875,175.0396 450.5425,177.1456 456.2245,178.4806 C468.4795,181.3606 481.1785,183.0816 493.4285,186.4426 C490.1885,187.3566 486.9405,188.2866 483.7395,189.2726 C461.8725,196.0076 436.9695,210.4016 414.2075,207.0896 M336.8515,175.6196 C334.4265,173.9276 332.2505,172.3846 328.8075,170.6366 C338.1735,168.1026 346.8415,164.5766 351.6345,162.8626 C365.4585,157.9196 379.5225,153.7526 393.6495,149.7426 C400.7235,152.4036 407.9275,155.2866 415.3535,158.4296 C422.5005,161.4556 428.6345,165.7676 435.4685,169.7436 C411.3935,175.0256 384.4035,179.6326 362.5585,191.6126 C353.5405,187.0206 345.0795,181.3586 336.8515,175.6196 M224.9755,126.8606 C242.0035,121.8026 259.0215,116.7556 275.9455,111.3586 C293.9465,118.5096 311.9345,125.8546 330.5985,131.1346 C314.5305,137.2886 298.5985,143.6166 282.8585,150.5716 C278.1545,148.7206 273.2905,146.8646 268.3805,144.9346 C253.8795,139.2346 239.4255,132.9386 224.9755,126.8606 M170.5545,107.0426 C168.7055,106.4696 166.6375,105.8416 164.4395,105.1456 C164.6375,105.0936 164.8355,105.0506 165.0375,104.9916 C182.2865,100.0096 199.3105,94.1806 216.1355,87.8526 C234.0805,94.7106 251.9525,101.7466 269.7825,108.8996 C253.5125,113.8376 235.7885,117.3946 220.5035,125.0186 C204.0205,118.4306 187.3805,112.2576 170.5545,107.0426 M103.0865,84.7676 C103.4775,84.6496 103.9395,84.5126 104.4665,84.3446 C121.7275,78.7776 139.0345,72.5916 157.0305,69.3846 C158.6535,69.0956 160.3035,68.8086 161.9485,68.5136 C176.9485,73.4776 191.8005,78.7706 206.6125,84.2636 C190.9545,90.3436 175.5725,97.0236 160.2045,103.7986 C141.1125,97.6146 122.1015,91.1806 103.0865,84.7676 M38.6065,64.4786 C57.0145,60.7676 75.2055,56.0926 93.7555,53.1456 C95.5605,52.8586 97.3925,52.5966 99.2425,52.3486 C99.5535,52.4076 99.8605,52.4676 100.1655,52.5236 C118.1005,55.8456 135.6805,60.6006 153.1825,65.7646 C142.8485,68.0576 132.5485,70.2916 122.6245,73.8686 C117.8205,75.5996 104.8005,80.0116 98.0025,83.0466 C78.3485,76.3896 58.5165,70.3216 38.6065,64.4786 M9.3065,55.7576 C8.0145,55.1416 6.5815,54.0936 5.2175,53.2626 C10.0815,46.8566 21.6825,46.9136 29.2965,45.8476 C38.9715,44.4946 48.7965,43.2816 58.5815,42.3046 C68.7745,45.3236 79.0985,47.7896 89.4325,50.2686 C80.0475,51.4156 71.2315,52.7376 63.0125,54.4626 C53.2945,56.5016 43.7225,59.3176 34.6165,63.3096 C21.0935,59.3546 11.9875,57.0296 9.3065,55.7576 M139.8675,34.1506 C150.6635,37.4386 161.7195,39.9176 172.6835,42.5676 C148.6555,44.7726 124.5835,46.5346 100.5815,49.0126 C88.4835,46.2216 76.3095,43.6496 64.0355,41.7576 C89.3285,39.3396 114.6235,37.0486 139.8675,34.1506 M145.3355,33.4816 C170.4485,30.2846 195.5875,26.5926 220.6885,22.9526 C231.2065,27.6266 242.3035,30.0656 253.4405,32.7356 C231.0185,36.0256 208.5675,38.8116 186.0365,41.2356 C171.8585,38.4796 157.6255,36.0636 143.3745,33.7236 C144.0255,33.6426 144.6825,33.5656 145.3355,33.4816 M287.0895,5.0346 C300.4895,9.8356 314.3445,13.4886 327.9365,17.7046 C306.0475,23.2866 284.0365,27.6576 261.7665,31.4276 C251.2665,28.3576 240.6015,25.9746 229.9875,24.3456 C228.4095,24.1026 225.6755,23.3786 223.0365,22.6066 C223.1805,22.5856 223.3245,22.5636 223.4685,22.5426 C244.1005,19.4676 268.7455,15.8006 287.0895,5.0346 M397.9035,44.5306 C380.2745,48.2916 363.0105,53.1606 345.5015,57.3826 C342.2415,55.7726 338.9065,54.1416 335.4625,52.5146 C329.6595,49.7746 323.2045,47.4566 315.9395,45.3216 C330.9465,42.7516 345.9385,40.0836 360.6565,36.2476 C365.1735,35.0696 366.8065,33.7826 369.2295,32.7036 C378.5935,37.2816 388.1015,41.0116 397.9035,44.5306 M495.9815,77.3546 C478.2625,82.0266 460.4675,86.3436 442.6445,90.6016 C438.7375,89.3276 434.9285,88.0236 431.3005,86.7806 C417.3665,82.0076 403.0575,77.8376 388.7845,73.7936 C395.5255,72.3236 400.5375,71.2106 402.8395,70.6396 C415.8415,67.4196 429.0095,64.2926 441.6065,59.5936 C459.6965,65.6226 477.8565,71.4356 495.9815,77.3546 M508.8685,81.6686 C529.3485,88.7166 550.3935,94.6106 571.4375,100.2686 C555.4855,104.5856 539.5325,108.8996 523.6015,113.2986 C500.3725,107.2646 477.1345,101.2806 454.1785,94.2516 C470.5035,90.8176 487.4645,87.9236 502.0615,79.3596 C504.7215,80.2436 507.0325,81.0366 508.8685,81.6686 M378.3185,138.9306 C367.4735,136.3506 356.7665,133.0326 346.0345,129.9286 C364.2165,123.3706 382.1755,116.2436 400.3805,109.7486 C418.9025,115.9856 437.2805,122.5956 455.6345,129.3076 C436.2905,134.0436 417.1655,139.4716 398.0415,145.0206 C391.6065,142.6186 385.0105,140.5226 378.3185,138.9306 M337.5515,132.9376 C354.8745,137.0676 371.6045,141.9336 388.4125,147.8026 C387.8975,147.9506 387.3805,148.1086 386.8705,148.2526 C366.0075,154.1556 345.9125,161.4976 325.5265,168.9896 C312.8225,162.7516 299.7665,157.2526 286.6075,152.0546 C303.2925,144.9236 320.4585,138.9936 337.5515,132.9376 M300.4565,102.3246 C310.3625,98.0346 320.2435,93.8486 330.3915,90.0626 C350.8435,95.8726 371.4855,100.8066 391.8345,106.9906 C374.2535,113.7346 356.9325,121.0986 339.3385,127.8156 C322.1615,122.0576 305.1575,115.8696 288.1475,109.6396 C287.0105,109.2236 285.8735,108.7966 284.7295,108.3736 C290.4645,106.3546 295.8005,104.3416 300.4565,102.3246 M277.0755,72.3896 C283.1765,74.4576 288.3875,76.2886 292.3545,77.7226 C303.1445,81.6266 314.1185,85.1576 325.1185,88.4916 C314.5035,92.1026 304.0505,95.8766 293.9175,100.5426 C290.6265,102.0576 285.2335,103.9736 278.6425,106.1116 C260.2555,99.1816 241.8785,92.2296 223.4485,85.4116 C241.0065,79.8846 259.0095,75.8546 277.0755,72.3896 M228.6615,57.2576 C228.6925,57.2536 228.7275,57.2496 228.7595,57.2456 C242.4625,61.2686 256.1175,65.4196 269.6755,69.9146 C250.8355,72.9796 232.2695,76.8466 213.8725,81.9326 C199.3855,76.8396 184.8015,72.0076 170.1065,67.8506 C169.5745,67.7006 168.9755,67.5366 168.3395,67.3536 C188.4025,63.6476 208.4645,60.1656 228.6615,57.2576 M221.4505,55.1756 C200.5855,57.9966 179.7625,60.9216 159.0325,64.6166 C142.6415,59.7376 126.1595,55.2666 109.5655,51.1326 C123.1785,49.8626 136.8395,48.7946 150.4285,47.6346 C160.6735,46.7596 170.9565,45.7386 181.2065,44.6596 C194.6715,47.9716 208.0935,51.4506 221.4505,55.1756 M328.7375,61.1046 C313.9405,63.8826 298.7745,65.8006 283.7195,67.8176 C270.9505,63.1436 258.0345,58.8726 244.9645,55.1186 C264.3505,52.6456 283.7275,50.1366 303.0705,47.3296 C308.1305,48.9666 312.9555,50.5876 317.4865,52.1866 C324.6075,54.7036 331.7515,56.8216 338.3645,59.0526 C334.9095,59.8346 331.6325,60.5616 328.7375,61.1046 M398.9525,104.1986 C386.2175,100.5186 373.4275,97.1576 360.5885,93.9296 C352.1375,91.8046 344.8805,89.6536 337.9595,87.4426 C352.3445,82.4546 366.8935,78.5566 381.7685,75.3276 C383.8035,75.9606 385.8685,76.5916 387.9585,77.2096 C404.4265,82.0836 420.9095,87.0186 437.3955,91.8856 C424.2785,95.2466 411.3485,98.6456 398.9525,104.1986 M461.1235,124.8486 C443.5815,118.4256 425.8505,112.5546 408.0265,106.9486 C410.1765,106.1416 412.2375,105.3846 414.0285,104.6256 C425.0695,99.9466 437.1385,97.7236 449.0065,95.2846 C471.6715,101.8846 494.3615,108.3806 516.9875,115.1106 C500.2675,119.3436 483.4735,123.1736 466.6305,126.8786 C464.6515,126.1456 462.8015,125.4646 461.1235,124.8486 M352.7605,64.6966 C359.4585,67.8826 368.4445,71.0816 378.1045,74.1746 C362.9175,77.4666 348.1625,81.4306 333.2915,85.9216 C318.6825,80.8876 304.2355,75.4756 289.7705,70.0466 C306.8645,66.9916 324.0145,64.0016 341.0035,60.6526 C341.4035,60.5736 341.8285,60.4876 342.2545,60.4026 C345.9595,61.7316 349.4645,63.1306 352.7605,64.6966 M437.9875,58.3836 C426.8235,61.8666 415.5715,65.6106 404.4405,68.5316 C400.9875,69.4376 393.9975,70.8566 385.0815,72.7146 C380.9775,71.5126 376.9875,70.3136 373.1585,69.0716 C363.3375,65.8866 355.9735,62.5696 348.9325,59.0826 C366.4955,55.6576 384.9875,52.4826 401.6595,45.8626 C413.7455,50.1086 425.8525,54.2806 437.9875,58.3836 M269.2925,36.8096 C278.2025,39.5816 287.0115,42.2506 295.3245,44.8636 C276.0695,47.7626 256.7845,50.4326 237.4875,53.0316 C223.5635,49.2556 209.5085,46.1086 195.3995,43.1066 C217.1515,40.5526 238.8395,37.6646 260.4995,34.4216 C263.7295,35.2206 266.7145,36.0086 269.2925,36.8096 M332.3755,19.1196 C344.1015,23.0316 355.6205,27.1666 367.0905,31.7776 C347.3215,34.8846 327.9895,40.2446 308.1475,42.9966 C308.0105,43.0146 307.8485,43.0366 307.7045,43.0556 C301.4565,41.4426 294.6715,39.8896 287.2335,38.2726 C280.7705,36.8686 274.5205,35.0936 268.0795,33.2376 C278.4605,31.5836 288.8355,29.8156 299.1745,27.9836 C310.3195,26.0096 322.0655,24.0226 332.3755,19.1196 M448.0965,166.9846 C433.1675,160.4446 418.4325,153.4996 403.4365,147.1116 C423.9015,141.8866 444.4535,137.1776 465.1065,132.7616 C473.9605,135.9756 482.8475,139.1546 491.6635,142.4216 C500.3475,145.6396 508.8645,148.8846 517.5885,151.7616 C494.4155,156.4346 471.3935,161.7516 448.3315,166.9326 C448.2555,166.9496 448.1735,166.9686 448.0965,166.9846 M612.9095,140.4936 C626.5255,143.9156 640.3155,147.1006 653.7845,150.6516 C657.0815,151.5206 664.3835,153.5226 670.5125,154.3456 C641.5355,158.4546 612.5425,162.4626 583.6595,167.2176 C568.1355,162.0076 552.4425,157.2986 536.8865,152.1806 C545.7475,150.6306 553.3835,149.3846 559.4645,148.4566 C577.2665,145.7386 595.0915,143.1226 612.9095,140.4936 M532.3095,149.0436 C531.2845,149.2206 530.2555,149.4036 529.2235,149.5876 C511.4735,143.4386 493.8275,137.0246 476.2315,130.4466 C494.2955,126.7516 512.3585,123.1006 530.3415,119.0266 C539.2685,121.6046 546.0505,123.4316 549.8585,124.3136 C567.7885,128.4666 585.6785,133.4836 603.5715,138.1106 C579.7765,141.4826 555.9955,144.9626 532.3095,149.0436 M677.1015,127.3376 C656.5505,129.0286 636.0365,133.4466 615.6355,136.3966 C597.9055,131.7276 580.1765,126.7046 562.3565,122.6366 C554.5255,120.8476 546.4995,118.9856 538.3915,117.0026 C552.1355,112.9276 565.8245,108.8606 578.5635,102.1436 C611.3885,110.6246 644.2935,118.7916 677.1015,127.3376 M736.6695,140.3996 C735.6455,139.3246 730.0445,138.3456 726.6345,137.4456 C704.3235,131.5576 681.5545,125.9056 659.3755,119.9596 C647.0095,116.6436 634.2465,113.6716 621.8725,110.1626 C608.8975,106.4836 595.6365,103.2496 582.5055,99.8916 C582.6475,99.8056 582.7965,99.7186 582.9365,99.6326 C582.6495,99.6976 582.3825,99.7476 582.1245,99.7916 C570.4465,96.7966 560.5655,94.2466 558.2175,93.5716 C540.5865,88.5016 523.0855,82.7006 505.7105,76.7086 C505.8075,76.6266 505.9135,76.5466 506.0095,76.4626 C505.8385,76.5296 505.6805,76.5916 505.5305,76.6466 C496.4715,73.4576 487.3155,70.3546 478.4605,66.8006 C472.3425,64.3446 466.6065,62.8976 461.2555,60.8436 C435.7965,51.0676 407.6005,43.2026 383.3155,33.9996 C353.3195,22.6326 320.2315,11.0086 288.0485,0.6026 C267.0015,7.8026 245.4735,14.6156 223.8845,18.8646 C210.7255,21.4546 197.1765,23.4976 183.7735,25.5296 C170.6375,27.5216 157.5095,29.7826 144.2815,31.1716 C132.3395,32.4236 120.3875,33.6966 108.4445,34.9266 C90.8185,36.7396 73.1875,38.7066 55.5835,40.7816 C55.2265,40.7676 55.0355,40.7926 54.9925,40.8506 C39.1635,42.8336 23.0105,44.5896 7.6925,48.0306 C4.1435,48.8276 1.0515,50.1586 0.3925,52.8486 C-0.6485,57.1056 8.7295,59.9216 14.2185,61.8466 C29.5515,67.2246 45.3465,71.4626 60.9885,75.6756 C80.8925,81.0366 100.4135,88.1616 119.5675,95.5026 C130.6395,99.7456 142.0425,103.3546 153.4735,106.8846 C153.3375,106.9486 153.1945,107.0126 153.0595,107.0756 C153.2905,107.0366 153.5125,107.0056 153.7395,106.9686 C160.1695,108.9646 166.6085,111.1696 172.6675,113.3746 C182.8705,117.0876 194.0835,119.1106 204.2375,123.2376 C222.0595,130.4796 241.2985,136.4016 258.3255,145.7706 C290.0835,163.2476 323.0515,181.0076 355.1925,196.6326 C373.2125,205.3926 391.7025,211.7906 411.4015,214.4156 C416.3545,215.0756 420.9325,216.3276 426.0095,215.1736 C431.2455,213.9796 437.7075,211.2436 443.0075,209.5276 C458.8805,204.3876 474.9035,199.2876 490.7765,194.2896 C521.1285,184.7326 552.3315,176.8616 583.4365,170.7786 C613.9365,164.8136 645.2455,160.6556 676.2025,155.9786 C687.6885,154.2436 699.2605,152.6306 710.6855,150.7806 C717.2905,149.7116 739.0915,142.9436 736.6695,140.3996" id="Fill-24"/>
            </g>
        </g>
        <g transform="translate(407.000000, 348.500000) scale(-1, 1) translate(-407.000000, -348.500000) translate(147.000000, 90.000000) scale(1 1)" id="Master/Character/Red Sitting On Floor">
            <g id="Master/Character/Red Sitting On Floor" stroke="none" stroke-width="1" fill="none" fill-rule="evenodd">
                <g id="Red Sitting On Floor" transform="translate(-16.000000, 324.000000) scale(1 1)">
                    <g id="Red Sitting On Floor/Legs Straight Black Pants" stroke="none" stroke-width="1" fill="none" fill-rule="evenodd">
                        <g id="Group-45" transform="translate(-1.000000, 12.000000)">
                            <path d="M505.739955,96.4281415 C522.297904,98.3095409 533.653118,85.1943046 540.587449,72.8665463 C541.440828,71.351606 542.262417,71.9517624 541.920668,73.6713014 C538.347203,91.6741752 534.494576,105.772395 521.952181,109.528829 C524.926591,110.048964 531.159541,110.653667 531.159541,110.653667 C530.674734,114.41101 529.73691,117.682772 528.119562,121 C521.327296,120.915433 510.666508,120.372564 503,120.590802" id="Fill-1" fill="#FA0000"/>
                            <path d="M480.287089,146.370076 C496.695264,149.129497 508.873974,136.696254 516.587754,124.811815 C517.53757,123.352863 518.320473,123.99223 517.868416,125.682115 C513.144173,143.389684 508.393105,157.200374 495.631191,160.264083 C498.566084,160.941486 504.749825,161.875179 504.749825,161.875179 C504.024547,165.5855 502.879998,168.787769 501.050906,172 C494.277008,171.551719 483.66609,170.439618 476,170.246722" id="Fill-3" fill="#FA0000"/>
                            <path d="M201.07918,119.053892 C204.040838,156.057942 244.13222,162.868901 276.697468,165.144631 C290.760848,166.127414 465.070767,178.025405 477.238365,175.699184 C477.238365,175.699184 488.863026,144.989456 483.659625,132.84622 C478.139261,119.959135 365.290262,117.439062 306.025089,108.561552 C298.234987,107.393933 269.955245,103.472718 244.74115,103.928946 C231.318696,67.7958766 199.198396,93.2833275 201.07918,119.053892" id="Fill-5" fill="#000"/>
                            <path d="M238,94.4007423 C243.405582,131.210191 283.824548,135.633896 316.44189,135.974181 C330.527378,136.120404 489.48846,135.725962 501.464672,132.678742 C501.464672,132.678742 511.016865,101.29219 505.024763,89.4643534 C498.66596,76.910816 257.251266,77.4785594 238.353711,96.8720959" id="Fill-7" fill="#000"/>
                            <path d="M466,121 C431.645344,120.708819 272,104 272,104 C371.435483,105.252263 466,121 466,121" id="Fill-9" fill="#0042FF"/>
                            <path d="M172.932381,132.939626 C165.137547,139.674013 151.855841,133.078516 139.888998,133.853985 C135.939443,134.111288 132.4487,135.605246 131.829999,134.192307 C131.045451,132.399201 134.786455,131.03701 138.62081,130.292702 C135.365432,129.67749 129.941125,131.887266 129.483306,129.777206 C129.106922,128.051764 134.235285,127.217534 137.486691,126.545341 C135.037709,125.008648 128.454456,128.307286 128.011534,125.738711 C127.550736,123.063296 141.011199,120.71552 148.00361,122.799761 C151.324533,123.792469 154.915579,124.240301 158.429163,123.731037 C161.84741,123.236909 171.165657,121.025352 172.419942,125.342518 C173.659329,129.608045 174.987102,131.166107 172.932381,132.939626" id="Fill-11" fill="#FA0000"/>
                            <g id="Group-15" transform="translate(0.000000, 152.000000)" fill="#FA0000">
                                <path d="M72.7417,4.9970625 C62.0187,23.254375 45.5997,26.3999688 41.7447,27.6995313 C40.0367,28.2759063 36.7107,29.2519375 34.8427,28.9401875 C31.5707,28.3955313 34.0507,26.8095938 35.8707,25.7837188 C38.1047,24.5222188 40.8157,23.7600625 42.8817,22.3780313 C38.9397,22.1623437 34.5627,22.069 30.7357,22.348125 C26.5847,22.6499063 22.9137,23.7718438 19.0887,24.9381875 C16.3527,25.77375 10.3957,27.9396875 8.7017,27.0724063 C6.1197,25.7510937 11.2917,23.9059688 12.9397,22.978875 C9.8907,22.9127187 6.1827,25.6305625 3.9177,23.9077813 C2.2107,22.6109375 6.9387,21.014125 8.4417,20.1858125 C6.9257,19.807 -0.3083,21.536125 0.0107,19.3855938 C0.2327,17.8757812 6.1177,16.8653125 7.1147,16.4846875 C5.1667,16.3831875 2.6217,16.7819375 2.3567,15.2857188 C1.9767,13.1342813 17.3297,10.7834688 24.2467,10.7834688 C31.0337,10.7834688 41.4577,11.5682813 45.5227,9.57634375 C49.4757,7.637875 52.0197,4.20771875 55.7387,1.6620625 C59.6587,-1.02315625 75.0067,1.1400625 72.7417,4.9970625" id="Fill-13"/>
                            </g>
                            <path d="M180.313846,74 C175.438679,85.8333455 153.163696,124.316427 170.504907,132.436241 C184.199676,138.848889 197.530894,124.316427 199,111.035586" id="Fill-16" fill="#FFC5EB"/>
                            <path d="M134.636077,15.9336867 C153.347743,-0.819738822 175.527753,5.56161195 180.625848,6.69754497 C185.222327,7.72468951 189.25224,8.64576529 193.300139,8.69653324 C201.870574,8.80169544 197.764719,4.12741719 205.514782,1.90541254 C242.628353,-8.73138084 233.990969,28.2177189 230.905333,37.4538607 C229.393491,41.9794613 242.765248,68.4331928 245.596079,74.1971689 C247.569568,78.2114638 260.052006,98.8830876 252.708631,109.543452 C245.214372,120.4223 229.934077,125.024959 213.844402,124.320553 C197.213142,123.595297 188.868534,110.729246 181.422238,97.989209 C173.046654,83.6572336 163.979599,70.5228381 155.789872,57.1763051 C155.789872,57.1763051 135.66329,79.7054922 124.016212,95.4499046 C110.504562,113.71549 76.8743231,180.313983 53.4852395,164.629404 C18.5969645,141.231722 115.95039,32.6626348 134.636077,15.9336867" id="Fill-18" fill="#FFC5EB"/>
                            <path d="M194,115 C187.230693,105.763134 176,88 176,88 C178.461385,99.5113354 185.537618,111.162581 194,115" id="Fill-20" fill="#AA99F2"/>
                            <path d="M208.708972,23.8463199 C208.603231,17.5341943 208.459582,12.6761661 208.994275,9.53803806 C209.141915,8.6817669 206.469444,4.2790064 196.830991,4.01688257 C185.525612,3.71061158 182.597765,7.65074653 183.042678,9.39455976 C184.414327,14.7731567 182.885063,17.5378732 183.263139,20.0726566 C183.263139,20.0726566 183.258151,31.8608708 197.6051,31.9988307 C209.539942,32.1128776 208.708972,23.8463199 208.708972,23.8463199" id="Fill-22" fill="#FA0000"/>
                            <path d="M188.630795,6.089824 C190.371312,5.47754455 193.404784,5.04426733 194.255151,5.01856444 C202.875186,4.75052006 206.392025,7.46492839 206.719242,8.01203267 C207.216533,8.84554054 207.0206,9.74881338 206.388046,10.4372835 C205.735601,11.1496207 201.326623,13.2545034 195.634635,12.9745255 C190.205217,12.7073991 185.853925,11.4828402 185.149761,9.60836547 C184.358075,7.5062366 186.879338,6.70485734 188.630795,6.089824" id="Fill-24" fill="#FA0000"/>
                            <path d="M194.768369,8.04893361 C195.854039,7.97117177 197.527871,7.92058882 198.385831,8.43094809 C199.417542,9.04171827 199.100258,9.64720367 197.801986,9.88199913 C196.806968,10.0616818 194.335611,10.0760262 193.518661,9.63965398 C192.28514,8.97830085 193.474414,8.11235103 194.768369,8.04893361" id="Fill-26" fill="#FFC5EB"/>
                        </g>
                    </g>
                </g>
                <g id="Head" transform="translate(129.000000, 283.000000)">
                    <path d="M62.9618,63.2482 C63.2598,60.9642 63.6908,59.4042 64.6578,58.6532 C67.0548,56.7922 73.8138,59.4852 75.2228,55.5382 C75.8478,53.7882 71.6578,48.1532 71.5928,46.3332 C71.5358,44.7542 82.3728,46.1802 80.9958,43.8192 C79.8288,41.8192 67.4958,43.8192 64.8298,26.4872 C64.0878,21.6602 59.6488,18.2622 48.3298,16.3192 C44.8048,15.7152 36.3268,14.8912 29.9368,19.0782 C24.1598,22.8642 22.6238,36.7052 29.7848,47.5332 C34.2708,54.3152 36.1758,59.2072 36.9838,62.9182 C37.1378,63.6222 38.6648,68.5442 50.4148,68.5442 C62.6658,68.5442 62.8988,63.7322 62.9618,63.2482" id="Fill-41" fill="#FA0000"/>
                    <g id="Group-9" fill="#000">
                        <path d="M67.2844,12.8012956 C70.2024,17.3425116 66.5574,24.8458209 63.3914,25.9097969 C63.1304,25.1093383 62.4604,24.2633089 62.3314,23.4549249 C62.1044,22.0343089 62.9254,21.6003969 63.9894,20.4868876 C65.3934,19.0157476 67.3044,15.1402596 67.2844,12.8012956" id="Fill-1"/>
                        <g id="Group-8" transform="translate(0.000000, 0.193675)">
                            <path d="M64.6613,9.42857093 C59.3583,5.3341456 50.7363,8.80346027 47.6013,11.6417203 C41.9233,9.82285627 35.5353,9.96947493 30.3233,12.5600683 C21.7113,-6.83718507 7.1753,2.21255493 4.0753,8.35468827 C0.1533,16.1274589 3.5983,24.3440483 6.5863,32.3664669 C7.1363,35.2701109 7.1343,38.3124483 5.9503,40.4275216 C3.8913,44.1098296 -1.2237,45.5027069 0.2683,50.2797016 C1.2033,53.2695336 5.0153,55.4202709 8.1303,54.3245936 C6.4083,56.9567949 3.9073,58.9302029 2.6183,61.8932869 C0.7233,66.2492483 2.6323,70.0524176 7.3683,70.8092869 C12.0523,71.5582309 15.6033,69.8235736 18.5463,66.6336269 C16.0723,69.7205443 14.7043,74.0507483 20.4423,73.2007563 C24.5203,72.5954589 27.7863,68.1543003 29.0423,64.5344043 C31.6673,56.9587763 26.3353,49.6139736 25.9603,42.3147416 C27.7693,45.2867416 31.6123,49.7813963 34.8933,56.2801696 C38.4913,50.6363416 37.9893,46.0049749 38.5343,39.4368549 C38.7163,37.2544163 39.4913,32.6389003 42.7923,33.2392443 C44.6363,33.5740896 44.7243,39.2971709 46.5773,39.2317869 C48.4343,39.1664029 47.7463,36.3073389 46.9923,32.8717069 C47.0523,32.9549229 47.0993,33.0371483 47.1613,33.1213549 C45.0183,23.5861883 52.8623,24.1607749 58.9933,23.5475523 C60.8503,23.3613069 63.1493,23.5208043 64.3683,22.8025709 C69.3433,19.8731696 69.9523,13.5150709 64.6613,9.42857093" id="Fill-6"/>
                        </g>
                    </g>
                </g>
                <g id="Red Expression" transform="translate(165.000000, 298.000000) scale(1 1)">
                    <g id="Red Expression/Gum" stroke="none" stroke-width="1" fill="none" fill-rule="evenodd">
                        <g id="Group-18" transform="translate(15.000000, 11.000000)">
                            <g id="Group-6" transform="translate(0.000000, 0.636880)" fill="#000">
                                <path d="M10.4924,0.873787037 C8.5954,2.33332407 4.7464,1.85665741 2.7204,1.07036111 C1.0084,0.407305556 -1.1866,3.89063889 0.7664,4.64739815 C4.1294,5.95008333 8.9484,5.8054537 11.9084,3.53110185 C13.7184,2.13980556 12.6404,-0.777231481 10.4924,0.873787037" id="Fill-4"/>
                            </g>
                            <path d="M16.8625,5.68221296 L17.6125,5.68221296 C18.5355,5.68221296 19.3565,4.83684259 19.6225,3.98943519 C19.8585,3.23573148 19.5915,2.28850926 18.6785,2.28850926 L17.9285,2.28850926 C17.0065,2.28850926 16.1845,3.13387963 15.9195,3.98128704 C15.6825,4.73499074 15.9505,5.68221296 16.8625,5.68221296" id="Fill-7" fill="#000"/>
                            <path d="M19.6828,12.5283889 C20.2528,12.6119074 20.9118,12.5345 21.4168,12.2289444 C21.9218,11.9233889 22.3868,11.3285741 22.2758,10.6889444 C22.1728,10.1002407 21.5208,9.98311111 21.0698,10.2560741 C20.8668,10.3782963 21.3198,10.1776481 21.0618,10.2632037 C20.9048,10.3151481 20.6408,10.3019074 20.3938,10.2662593 C19.3088,10.1083889 18.2828,12.3246852 19.6828,12.5283889" id="Fill-9" fill="#000"/>
                            <path d="M12.6496,10.6693889 C10.7526,11.003463 8.8666,10.5858704 7.0766,9.94624074 C5.8876,9.52151852 4.3856,11.9211481 5.7346,12.4029074 C7.9186,13.1830926 10.1426,13.5344815 12.4386,13.1301296 C13.6926,12.9091111 14.3626,10.3679074 12.6496,10.6693889" id="Fill-11" fill="#000"/>
                            <path d="M7.633,15.6755093 C10.529,15.4616204 13.48,16.570787 15.463,18.7239352 C16.349,19.6864352 18.185,17.5251389 17.27,16.5320833 C15.07,14.1426389 11.642,12.8959722 8.432,13.13125 C7.217,13.2208796 6.091,15.7885648 7.633,15.6755093" id="Fill-13" fill="#FD839D"/>
                            <g id="Group-17" transform="translate(21.000000, 19.988731)" fill="#000">
                                <path d="M4.5217,0.7425 C2.7127,1.04601852 0.5327,2.87018519 0.9667,4.93166667 C1.2887,6.46046296 3.0327,6.72324074 4.2667,7.07666667 C5.1567,7.3312963 6.0407,6.62851852 6.4517,5.87685185 C6.7897,5.25861111 6.9497,4.0537037 6.0557,3.79805556 C5.7457,3.70944444 5.4307,3.63712963 5.1187,3.55259259 C4.9307,3.50064815 4.7467,3.44055556 4.5617,3.37638889 C4.4717,3.34481481 4.3817,3.30916667 4.2937,3.27046296 C3.9077,3.11055556 4.4587,3.40388889 4.1357,3.19101852 C4.0707,3.14518519 4.0097,3.09425926 3.9537,3.03824074 C4.0557,3.1787963 4.0697,3.18287037 3.9957,3.0525 C4.2157,3.4925 3.8767,3.98342593 3.5777,4.26861111 C3.7377,4.14333333 3.7297,4.14231481 3.5537,4.26555556 C3.6427,4.21157407 3.7337,4.1637037 3.8267,4.11888889 C3.6587,4.18 3.6647,4.17898148 3.8437,4.11685185 C3.9727,4.07407407 4.1057,4.04861111 4.2387,4.02722222 C5.9157,3.74509259 6.8097,0.358518519 4.5217,0.7425" id="Fill-15"/>
                            </g>
                        </g>
                        <g id="Group-6" transform="translate(40.000000, 16.000000)">
                            <g id="Group-3" transform="translate(0.000000, 0.761100)" fill="#FFC5EB">
                                <path d="M0.5586,17.4642 C11.0256,15.1422 9.2816,1.0272 21.4566,0.2692 C34.8106,-0.5608 37.4786,16.0852 29.7516,23.4562 C25.0666,27.9272 18.3126,25.6422 13.3746,23.1512 C8.8436,20.8642 4.4746,18.9502 -0.0004,17.4642" id="Fill-1"/>
                            </g>
                            <path d="M20.8945,5.3361 C23.9675,5.6301 30.0835,8.5511 29.1405,12.4731 C28.7575,14.0651 30.8205,13.6761 31.1095,12.4781 C32.3735,7.2231 26.0815,3.5431 21.6055,3.1141 C20.5135,3.0101 19.4895,5.2011 20.8945,5.3361" id="Fill-4" fill="#FFF"/>
                        </g>
                    </g>
                </g>
                <g id="Accesories" transform="translate(50.000000, 205.000000) scale(1 1)" fill="#000">
                    <g id="Accesories/Fedora 3" stroke="none" stroke-width="1" fill="none" fill-rule="evenodd">
                        <path d="M87.2699027,99.363863 C79.5011258,104.532 54.3649797,119.657135 59.7492412,130.60125 C64.2354643,139.717852 89.750672,132.994682 97.5174643,130.403627 C125.490618,121.066446 146.834164,110.508594 170.591003,92.2853716 C179.873049,85.1659582 194.09381,70.4540344 184.170734,65.3906973 C177.944995,62.2137601 163.685534,65.1112306 154.32708,67.7941106 C145.27128,70.3921525 108.653141,85.1310249 87.2699027,99.363863" id="Fill-6" fill="#000"/>
                        <path d="M96.8781204,84.7755034 C92.8046974,89.5703529 93.9041743,95.5639148 93.3643589,101.11033 C115.709144,102.517644 139.627728,81.6674348 144.81849,76.8655986 C143.961136,74.9682196 142.030105,71.4499339 141.289844,70.6085396 C131.482867,59.4678005 102.565036,78.0782843 96.8781204,84.7755034" id="Fill-9" fill="#000"/>
                        <path d="M96.9366666,103.655473 C99.359882,106.703656 110.609674,107.613919 124.671667,102.668357 C139.952213,97.2936139 148.670628,86.4513053 146.92119,81.3769891 C145.546844,77.3915948 137.978513,88.7459262 120.787774,94.4061243 C105.715613,99.369652 93.5122127,99.3516862 96.9366666,103.655473" id="Fill-11" fill="#0042FF"/>
                    </g>
                </g>
            </g>
        </g>
    </g>
</svg>
