<svg viewBox="92.25 147.6 1309.95 1180.8" xmlns="http://www.w3.org/2000/svg" xmlns:xlink="http://www.w3.org/1999/xlink" overflow="visible">
    <defs>
        <polygon id="masterspot-illustrationslocation-map-path-1" points="0 0.319719372 641.8098 0.319719372 641.8098 532.386 0 532.386"/>
        <polygon id="masterspot-illustrationslocation-map-path-3" points="0.0937168707 0.4647 811.183572 0.4647 811.183572 328 0.0937168707 328"/>
        <polygon id="masterspot-illustrationslocation-map-path-5" points="0.0534 0.255 12.984134 0.255 12.984134 50.1837674 0.0534 50.1837674"/>
        <polygon id="masterspot-illustrationslocation-map-path-7" points="0.478990783 0.255 1.47899078 0.255 1.47899078 1.24679229 0.478990783 1.24679229"/>
    </defs>
    <g id="Master/Spot Illustrations/Location Map" stroke="none" stroke-width="1" fill="none" fill-rule="evenodd">
        <g id="Group-565" transform="translate(91.000000, 155.000000)">
            <g id="Group-3" transform="translate(0.000000, 509.750000)">
                <mask id="masterspot-illustrationslocation-map-mask-2" fill="#fff">
                    <use xlink:href="#masterspot-illustrationslocation-map-path-1"/>
                </mask>
                <g id="Clip-2"/>
                <path d="M315.3308,17.812 C303.2218,19.498 326.8308,28.9 328.3028,22.842 C326.5068,18.433 319.4128,19.392 315.3308,17.812 M161.4218,147.399 C193.6468,136.098 147.4838,189.22 180.9018,188.102 C183.9038,188.336 186.0038,188.135 187.6858,191.992 C193.3358,204.942 201.3498,208.988 215.5058,207.422 C223.6328,206.523 223.7678,206.555 221.9588,214.335 C218.8578,224.546 221.6338,247.204 236.0138,244.58 C240.9938,242.16 240.0428,237.889 237.9088,234.395 C234.7928,207.36 254.6168,182.508 208.1578,189.006 C221.6218,141.477 187.3298,177.999 184.8808,163.243 C200.2488,114.736 107.7978,139.663 161.4218,147.399 M522.7238,215.237 C541.5328,240.654 536.5568,189.499 519.4238,187.299 C504.8138,192.252 511.2828,238.239 491.7448,213.826 C459.8788,188.199 470.8488,247.126 457.5388,233.999 C431.1348,208.014 417.7388,224.728 421.6088,256.141 C429.1578,281.939 435.0718,253.087 433.2038,240.96 C434.8738,224.869 454.3368,249.656 461.7368,252.064 C477.8468,263.257 477.3958,238.965 481.3188,229.142 C491.9138,223.177 509.4448,272.979 522.7238,215.237 M111.4608,259.677 C114.8468,255.304 136.5878,246.232 126.9278,242.667 C47.5728,278.905 102.7408,421.795 186.9378,399.867 C246.5068,385.84 265.8578,268.536 196.1858,257.408 C151.2718,245 99.1638,297.512 131.0348,338.514 C150.6268,369.558 210.7218,348.559 191.9378,311.071 C182.3908,289.343 136.1938,293.521 159.6868,319.135 C174.5378,329.675 163.3398,309.597 173.5538,312.088 C203.3078,333.01 132.1198,355.019 134.0158,314.519 C153.5378,230.76 276.8628,264.362 208.4178,368.965 C144.9308,436.222 59.7018,319.074 111.4608,259.677 M154.9668,532.386 C129.4618,526.782 148.3668,516.484 135.5858,519.774 C131.5648,513.012 123.8178,514.169 116.8618,514.212 C115.5878,512.837 114.3358,511.435 113.0488,510.074 C33.3668,455.385 8.4678,346.443 -0.0002,254.707 C21.1688,220.979 63.5318,192.74 94.5458,168.051 C156.4088,108.497 223.5438,49.553 293.0678,0.922 C297.5288,11.842 265.9948,29.523 262.7478,45.747 C242.6328,85.888 258.9828,138.173 299.1068,158.354 C395.3198,198.741 460.4038,64.679 353.7248,32.034 C296.8008,14.304 253.2248,106.781 322.5818,122.419 C366.4878,137.719 386.3558,55.772 333.9388,73.141 C322.3178,77.839 324.6688,89.188 333.7398,95.179 C333.3418,79.41 361.1938,81.653 350.6438,95.692 C317.6688,135.83 274.2058,78.91 315.4118,51.585 C419.7188,12.066 424.5168,164.66 317.6138,150.498 C279.2558,147.19 240.6768,83.712 279.0048,58.576 C277.1968,52.126 267.1408,68.034 267.2638,58.939 C267.2868,51.989 269.1258,47.11 275.2928,42.647 C291.2558,13.031 324.1908,-17.968 354.8988,13.5 C383.3498,25.556 412.2208,38.034 436.9398,56.979 C483.3458,89.368 524.8018,137.767 583.9958,143.859 C592.7668,142.22 607.6148,135.544 611.2338,148.198 C573.9628,196.612 602.9228,253.93 641.8098,284.174 C611.8538,298.754 615.5568,337.538 605.1158,364.598 C601.5008,370.658 610.4608,376.32 602.5638,379.276 C601.7078,391.58 583.2178,380.308 575.4078,388.54 C557.4708,395.852 536.7178,393.013 517.7238,401.176 C494.1908,407.17 473.9148,415.466 471.9988,384.468 C460.1948,353.959 417.7638,325.832 386.4318,344.269 C341.1668,374.521 373.8768,437.714 336.8958,439.265 C319.3848,433.388 323.9338,452.883 311.8458,444.292 C300.0028,444.709 289.0798,448.32 278.9768,454.469 C257.3978,436.148 241.6168,421.84 241.0498,461.706 C238.1338,473.616 225.1168,465.92 217.5958,463.095 C179.0588,445.102 220.5818,525.728 189.5658,499.375 C133.3008,491.027 176.2868,523.723 154.9668,532.386" id="Fill-1" fill="#545bbe" mask="url(#masterspot-illustrationslocation-map-mask-2)"/>
            </g>
            <g id="Group-6" transform="translate(160.000000, 837.750000)">
                <mask id="masterspot-illustrationslocation-map-mask-4" fill="#fff">
                    <use xlink:href="#masterspot-illustrationslocation-map-path-3"/>
                </mask>
                <g id="Clip-5"/>
                <path d="M665.8726,122.4307 C659.6356,117.1627 658.5066,118.3047 654.5256,123.5387 C658.9346,129.3887 660.5366,126.8427 665.8726,122.4307 L665.8726,122.4307 Z M64.7356,254.4757 C58.6146,252.3907 45.7026,267.8107 44.5906,275.1457 C55.1516,274.8337 58.0466,261.1527 64.7356,254.4757 L64.7356,254.4757 Z M439.9386,266.0257 C448.9546,261.8907 459.6456,247.5167 463.8716,238.9207 C455.3516,242.9317 442.5266,256.7697 439.9386,266.0257 L439.9386,266.0257 Z M710.9556,88.8077 C703.7956,91.1337 686.2266,110.3367 687.4086,121.0847 C698.1376,114.3417 706.1176,100.8817 710.9556,88.8077 L710.9556,88.8077 Z M721.8576,210.6707 C713.4356,211.7827 692.9386,233.9647 692.6416,244.8397 C704.8716,237.3777 711.7506,221.3057 721.8576,210.6707 L721.8576,210.6707 Z M449.6646,153.4727 C439.2536,154.9177 427.7626,173.4947 417.8826,181.2787 C420.2106,194.4127 447.5056,159.5787 449.6646,153.4727 L449.6646,153.4727 Z M769.0026,262.6977 C759.9916,259.3097 750.6606,282.1317 742.1366,288.4387 C746.3766,302.2627 763.5336,269.0567 769.0026,262.6977 L769.0026,262.6977 Z M118.9366,223.6457 C124.6356,220.2207 144.3616,201.6227 139.7646,197.2517 C132.7826,199.4507 112.7896,214.7867 118.9366,223.6457 L118.9366,223.6457 Z M54.8456,240.3057 C43.2976,239.0237 35.5366,255.4557 29.1416,263.6417 C31.4186,283.0087 49.3346,247.0417 54.8456,240.3057 L54.8456,240.3057 Z M336.9286,256.3807 C320.7296,261.7607 305.8546,284.7167 292.0166,297.4247 C298.3106,308.7757 329.0596,263.8357 336.9286,256.3807 L336.9286,256.3807 Z M162.8066,208.6837 C150.9846,210.4287 137.0486,228.9737 124.7826,236.5737 C127.0706,256.2417 158.9446,216.7897 162.8066,208.6837 L162.8066,208.6837 Z M140.3886,257.7687 C150.1046,256.8677 180.4726,224.7747 170.7766,221.4207 C162.3396,231.4227 135.1406,244.8257 140.3886,257.7687 L140.3886,257.7687 Z M348.4956,266.1107 C333.1666,267.2107 317.4706,292.9237 303.5276,303.6087 C303.8516,323.2697 341.9996,272.6737 348.4956,266.1107 L348.4956,266.1107 Z M465.0656,258.9737 C444.4196,269.0607 426.1066,290.4287 411.9526,308.5797 C432.7626,299.4157 448.6746,275.4497 465.0656,258.9737 L465.0656,258.9737 Z M455.2936,135.1107 C442.0186,137.9327 405.2696,166.8507 409.8346,180.7957 C426.9206,168.3897 439.9486,150.4447 455.2936,135.1107 L455.2936,135.1107 Z M598.7006,172.3597 C581.6496,179.5097 566.8336,205.3887 550.6536,218.7567 C551.3996,239.9877 591.6116,180.1607 598.7006,172.3597 L598.7006,172.3597 Z M442.2556,128.6647 C422.9966,125.6217 410.5236,156.4697 395.2976,166.9527 C378.5956,201.0537 437.0936,134.1617 442.2556,128.6647 L442.2556,128.6647 Z M311.4196,173.6727 C299.3936,170.9207 283.1546,201.4237 270.7336,210.4837 C262.6606,238.5987 307.6386,183.5017 311.4196,173.6727 L311.4196,173.6727 Z M722.4636,56.1217 C705.6466,67.9277 679.0856,95.0837 672.5606,116.9217 C693.3296,103.3827 707.9036,76.8147 722.4636,56.1217 L722.4636,56.1217 Z M92.9836,153.6157 C89.4616,146.4417 78.9186,160.1067 74.6866,163.0917 C66.5336,175.5887 37.8286,184.7157 43.0876,201.2077 C63.0146,194.3937 79.5626,170.5347 92.9836,153.6157 L92.9836,153.6157 Z M421.7666,262.1427 C483.3636,209.2617 477.3486,188.5197 417.8026,252.7697 C413.2196,257.2257 418.7096,258.7347 421.7666,262.1427 L421.7666,262.1427 Z M731.1506,179.2697 C713.8486,182.9447 702.8306,208.1867 688.4466,219.8337 C651.8136,273.7097 726.2836,197.1797 731.1506,179.2697 L731.1506,179.2697 Z M336.9206,238.1257 C314.2096,241.6237 293.1926,271.8777 274.2656,287.7007 C270.0526,314.0557 330.0866,246.2797 336.9206,238.1257 L336.9206,238.1257 Z M711.1976,46.3047 C701.6066,37.8057 671.2776,84.4377 662.3536,94.3877 C654.2106,132.9087 707.8996,54.1267 711.1976,46.3047 L711.1976,46.3047 Z M761.1086,231.2917 C743.8196,232.7897 727.8336,261.3017 712.7666,273.3267 C707.1516,279.7797 680.1806,297.3567 699.9876,299.2037 C726.1296,283.1857 741.8356,254.4677 761.1086,231.2917 L761.1086,231.2917 Z M279.6396,172.3737 C277.4916,160.2587 298.1636,152.5877 304.9146,142.9727 C285.2886,146.0147 255.6816,176.8737 247.1266,197.1227 C265.1276,187.2377 273.2496,179.6817 252.1346,201.3927 C251.3746,229.4117 303.0036,159.5997 313.3556,152.0957 C312.8456,139.9467 287.7836,168.6827 279.6396,172.3737 L279.6396,172.3737 Z M569.1756,171.8917 C573.4426,160.7287 622.0416,114.8147 595.3566,129.1807 C586.2516,138.2437 514.6426,204.9347 561.2666,192.3717 C570.0476,180.5637 588.2766,169.6727 589.8656,155.1277 C582.7176,159.3517 576.7396,167.1287 569.1756,171.8917 L569.1756,171.8917 Z M713.3356,172.0507 C629.2736,235.2677 670.5336,248.7957 715.8116,167.8727 C714.5606,169.1067 712.9486,170.0277 713.3356,172.0507 L713.3356,172.0507 Z M763.3396,250.0227 C744.1436,258.6417 735.9596,279.6097 719.7826,292.7237 C708.4616,323.3437 764.6086,252.8247 763.3396,250.0227 L763.3396,250.0227 Z M85.3286,180.0527 C38.3826,206.4907 58.0206,232.1887 85.7726,178.2477 C85.6246,178.8497 85.4766,179.4517 85.3286,180.0527 L85.3286,180.0527 Z M215.2856,130.0567 C187.4006,150.3867 197.2046,164.8777 215.5476,129.6657 L215.2856,130.0567 Z M155.2336,119.0387 C180.2526,113.5827 126.3356,151.7377 155.6656,150.1797 C171.5926,138.8607 180.3846,118.0497 195.0366,105.6067 C220.7146,104.1677 177.3246,131.2337 176.2836,144.1907 C203.2386,146.8787 202.3266,96.5277 231.8886,100.9327 C241.3766,102.6237 247.4136,94.6437 256.8816,95.9017 C259.4566,102.2187 263.6556,99.3707 267.5116,97.6857 C278.4416,93.1407 288.7006,86.8547 300.6216,85.4877 C342.6616,77.1497 403.0726,60.2177 441.7246,56.7177 C468.5486,52.1147 548.0316,21.1387 502.8136,65.2147 C499.1036,75.7997 511.8516,76.2227 516.0286,67.6047 C522.6936,60.3837 548.2896,24.5707 550.2226,40.6517 C544.1676,49.3277 531.1386,55.0647 532.9206,66.9897 C552.0296,65.2097 558.4766,26.5367 576.2986,30.3617 C579.0546,37.5877 578.9106,37.5987 573.3346,43.4647 C568.6436,47.3757 523.1576,94.3387 548.5526,81.4037 C561.6106,65.9817 575.5926,51.0497 583.7566,32.2917 C584.8986,29.9327 580.3236,24.4677 588.1416,26.1707 C589.4436,26.4547 590.8716,20.1887 595.4636,21.3907 C609.5376,23.3297 620.5016,10.2037 634.8636,12.0637 C650.2376,15.0187 661.4756,2.1397 674.4666,0.4647 C717.5766,2.6017 770.8626,29.4177 786.6446,73.0707 C801.3496,94.3657 765.5666,104.2247 757.7296,122.1957 C762.5356,145.1137 784.8446,103.4327 794.8936,101.5127 C797.0666,115.2587 763.7036,126.7627 779.5556,138.4417 C783.7256,140.9027 779.6656,147.8757 785.8486,147.5797 C789.0156,147.5027 792.5646,148.4047 793.4196,143.3947 C801.1236,124.5947 802.9266,139.9967 805.6116,150.0397 C807.7966,156.7817 800.8276,155.4557 796.0206,156.6197 C802.3996,161.7787 809.7936,161.8877 807.9786,172.3137 C810.3266,203.1847 817.8066,236.7267 796.5806,263.9897 C766.7986,306.0627 708.5196,304.2217 663.2166,312.7417 C640.4196,310.6837 618.8226,322.5097 596.6216,315.1287 C602.9026,304.0917 621.4886,289.8427 619.0326,278.3087 C582.3486,323.2187 550.9146,340.6787 600.9716,274.6507 C581.3296,285.2097 569.5026,314.2977 551.0526,319.9927 C559.3756,306.5107 578.3226,291.7937 581.0866,278.7727 C563.6946,287.0437 555.9966,306.5777 542.7016,319.6267 C511.9886,322.9007 480.4416,321.2457 450.8486,323.5347 C437.2506,311.0077 451.5186,332.9517 419.2876,322.2897 C417.2036,321.9757 413.7916,322.2827 412.9086,323.6007 C403.0766,332.3467 385.1186,326.0487 373.8176,321.8797 C369.6056,320.7767 370.6516,313.3957 366.7166,317.4547 C364.3396,319.4277 362.4396,323.3757 358.6746,319.1997 C355.1306,321.1837 352.5256,329.4997 348.1176,322.1357 C334.1036,323.9097 320.5056,317.1417 305.0526,317.9357 C294.3446,317.5057 283.8406,310.2527 273.4756,316.6337 C271.6516,317.8957 267.4286,317.3157 265.1946,316.0337 C254.5216,308.7887 242.5496,318.7047 233.5626,308.7797 C180.7506,323.6627 225.4946,284.8997 236.5976,264.0147 C219.9296,270.6217 210.2886,289.5187 194.0696,297.8517 C212.9976,257.5257 181.2706,309.0797 166.9696,305.2327 C172.8126,293.6647 182.8326,284.4257 190.6916,274.1217 C186.6586,263.2817 202.7556,272.0977 204.3526,253.4107 C123.4336,325.4117 186.0926,302.2177 66.3306,291.3717 C44.6066,288.5307 30.8096,272.4657 11.8906,261.8527 C-3.6744,247.2127 -5.0814,210.4767 15.2026,203.1377 C45.6846,155.9687 103.3146,137.0737 155.2336,119.0387 L155.2336,119.0387 Z" id="Fill-4" fill="#7eeac9" mask="url(#masterspot-illustrationslocation-map-mask-4)"/>
            </g>
            <path d="M1183.5135,688.6538 C1183.0905,674.7368 1166.0755,677.1718 1165.7285,690.3988 C1165.9905,701.9078 1183.8305,699.5548 1183.5135,688.6538 M854.0125,723.7358 C864.1975,725.7998 869.8125,706.9518 859.5665,702.6358 C848.1055,695.3158 841.8995,723.7408 854.0125,723.7358 M1060.3055,556.1658 C1049.3455,561.4578 1055.9545,577.9238 1065.2825,580.0128 C1081.5375,579.4378 1075.1395,556.7438 1060.3055,556.1658 M988.8275,595.0708 C986.9305,582.8318 975.8105,578.6648 967.2835,585.0048 C959.9305,594.9108 979.0695,617.5908 988.8275,595.0708 M892.8985,644.1678 C893.2555,635.5768 879.0615,624.6608 871.9525,634.2248 C863.3255,652.2998 888.1645,666.8958 892.8985,644.1678 M911.1595,781.6168 C890.7425,779.6348 894.1445,803.9508 910.5945,804.0658 C925.1135,804.9038 929.8845,779.8288 911.1595,781.6168 M1098.2665,809.9288 C1078.5715,808.6978 1076.2695,830.7528 1094.5265,833.4938 C1106.9945,834.9578 1117.6845,809.3548 1098.2665,809.9288 M1163.3995,560.7918 C1160.2855,530.5758 1125.1505,552.3458 1136.7965,571.9368 C1147.8865,586.2118 1163.8555,576.5928 1163.3995,560.7918 M1234.6735,663.7498 C1239.0955,683.6648 1248.4845,702.8258 1257.2405,721.8728 C1192.1375,738.9838 1136.7695,792.0518 1112.9225,858.8078 C1086.0785,870.8208 1046.8915,847.4288 1024.4485,828.8538 C1016.7145,819.2158 1050.5425,813.9868 1056.9425,807.0668 C1159.1685,754.1348 1224.9355,560.0818 1043.3825,608.5328 C961.1895,638.7538 946.9995,754.7498 999.8015,817.4518 C1004.2945,826.1788 981.0205,824.7958 975.0675,827.8078 C934.2845,836.6988 894.4795,829.9338 857.7285,810.6018 C849.8125,807.1008 849.8355,804.5878 856.9385,800.1158 C901.6385,771.2798 934.6095,724.0228 945.6475,671.8738 C956.8885,608.6458 880.6395,577.0038 832.2045,607.7238 C828.4555,610.8548 833.7245,614.8118 836.9065,611.1748 C881.4455,586.4828 948.7155,613.7328 938.6465,671.5198 C930.0555,718.0518 880.8475,791.1168 836.9695,796.9958 C805.1255,772.0628 784.9195,734.7278 788.9365,693.5818 C789.5135,662.7668 802.2665,636.4688 826.7565,616.9878 C827.8005,601.7998 827.8265,607.1338 835.3975,597.1538 C843.9315,597.2968 852.6185,594.0308 855.4005,583.8488 C877.9265,583.6788 895.3175,562.8908 913.7915,553.3338 C950.3595,540.6008 984.8655,520.1498 1022.6065,509.9458 C1028.2025,505.7238 1035.8015,505.2658 1039.9455,510.2378 C1050.2175,508.4448 1060.4305,505.7528 1070.7145,503.8308 C1081.5115,508.5548 1093.1585,501.0288 1104.3175,504.1638 C1114.4675,509.8208 1121.7905,491.7988 1128.7305,501.5288 C1135.6935,502.7308 1138.1505,512.0388 1146.3325,511.1848 C1146.9435,512.2738 1150.0035,517.1958 1147.4915,519.6298 C1163.5365,514.6788 1164.9685,545.9308 1176.1335,551.8778 C1175.2045,568.8208 1189.7045,576.6888 1195.5085,591.4218 C1209.6345,615.1978 1216.9605,641.9688 1234.6735,663.7498" id="Fill-7" fill="#4c8dc9"/>
            <path d="M585.2845,109.209 C561.1605,104.295 589.7925,94.44 560.8365,104.961 C572.1365,105.858 572.8445,116.405 585.2845,109.209 M625.5735,94.794 C585.4115,83.058 612.0945,120.119 617.6295,106.194 C617.7195,96.557 618.6905,99.761 625.5735,94.794 M310.9805,381.135 C324.0685,383.647 342.1475,380.973 356.8515,382.107 C367.4635,381.588 360.2075,366.188 362.4735,359.283 C362.9065,349.417 363.0035,349.335 352.7975,349.685 C280.4505,352.686 208.0155,351.283 135.6225,353.608 C114.7475,353.944 93.8635,354.061 72.9905,353.783 C60.0975,354.263 70.0075,373.245 66.7335,381.512 C69.3655,399.317 138.0315,382.632 155.8585,386.222 C207.5205,383.097 259.3015,384.256 310.9805,381.135 M646.9765,119.837 C642.8005,118.166 635.4945,112.681 636.4405,105.811 C615.2905,99.183 641.5445,122.712 622.5115,118.477 C616.3215,108.942 618.0285,127.78 605.6895,118.594 C595.8525,114.854 603.2715,132.234 590.1595,120.971 C585.2635,122.55 579.0125,121.69 576.7405,128.156 C574.2175,126.371 571.4375,124.749 569.7635,128.796 C567.3095,136.256 552.1015,134.944 557.8925,126.28 C559.7615,109.698 547.1125,126.099 546.4945,133.967 C549.4985,143.493 542.7345,149.096 535.3645,154.584 C502.8475,174.408 541.7775,187.662 509.8425,177.719 C508.9595,192.79 501.7225,168.64 492.4525,174.209 C491.8805,174.317 490.6385,173.355 490.5125,172.73 C490.3765,169.394 494.7835,169.354 497.1045,168.353 C507.4255,163.526 493.4095,160.403 497.9635,153.005 C495.7995,144.317 505.7765,152.202 511.1575,148.016 C512.3625,156.054 502.7935,162.313 511.0185,168.715 C514.3705,172.971 513.6955,171.966 515.0375,167.449 C517.2255,155.187 506.9025,146.54 514.4635,134.899 C522.5555,131.612 512.1815,141.112 528.9615,136.118 C534.8275,116.062 521.1835,122.157 510.8375,132.462 C499.7835,141.408 489.3365,149.795 482.0055,162.017 C490.3235,162.703 484.3635,181.232 479.7755,175.272 C479.1335,174.56 475.1645,175.258 474.6565,176.268 C456.1915,192.242 475.3485,215.184 461.5905,214.834 C453.6015,221.031 455.2345,242.105 465.0245,239.579 C471.0025,251.628 468.5365,229.664 477.0395,227.749 C479.2795,232.333 477.4225,239.537 485.2335,240.565 C487.2805,244.201 484.6045,252.413 488.9495,251.993 C494.8225,269.323 454.5475,243.699 455.9095,250.069 C452.2615,264.078 481.8185,402.522 488.7935,361.206 C492.5755,354.061 489.2145,343.942 484.1315,354.59 C473.4985,348.982 480.6125,340.956 476.7195,332.256 C477.0205,328.661 478.3835,325.489 482.4635,326.198 C493.5025,338.134 505.4095,361.376 491.8275,375.249 C480.5865,371.13 487.9285,379.898 488.2995,381.284 C495.8715,395.659 500.9665,415.092 514.3795,424.741 C522.4105,428.247 524.3875,429.349 529.1235,435.826 C530.3605,444.131 519.1115,442.529 528.1965,453.334 C537.1275,462.587 540.6025,478.768 552.9595,483.347 C556.1525,488.654 560.9415,479.421 563.6775,488.16 C565.5175,492.029 568.6835,494.06 571.0545,487.965 C576.2225,486.867 576.6415,496.498 579.3035,499.972 C578.0655,506.308 567.6475,506.565 573.7415,513.931 C588.2875,530.685 602.4945,548.357 617.2465,565.366 C624.6295,571.913 629.2555,555.635 635.2925,552.798 C722.6795,449.953 842.5525,290.931 755.0215,156.422 C753.0195,145.013 747.1195,154.596 744.2415,146.719 C745.7025,137.676 730.4325,136.403 725.8975,129.362 C721.9305,125.916 718.6015,121.791 713.2055,127.284 C711.1705,127.852 708.1815,125.063 708.5635,122.51 C701.1115,115.313 686.2845,105.908 677.8775,106.518 C700.1285,111.503 695.3135,135.241 681.6065,120.617 C679.8425,119.554 677.0345,120.738 674.9405,120.22 C677.5485,106.393 670.1725,116.221 670.1495,108.054 C669.1895,90.754 638.8435,95.961 646.9765,119.837 M1051.3625,507.846 C1018.7305,519.993 1049.5765,451.47 1031.3505,439.862 L1031.3555,439.864 L1027.0575,438.199 C1025.6865,430.528 871.1085,379.313 905.5015,374.011 C913.9635,372.751 934.0965,389.46 935.8445,378.868 C933.5005,319.869 929.4185,261.448 929.4655,202.282 C923.6685,186.564 888.0765,200.306 872.8275,195.846 C861.5095,200.09 827.0895,189.142 825.2025,199.865 C830.3805,325.076 820.9535,456.545 832.3345,578.764 C803.4495,584.335 822.5875,426.41 814.4765,395.397 C810.4045,368.097 825.2715,348.086 787.2835,351.152 C781.8225,350.236 779.5345,351.948 777.8185,356.913 C765.3295,393.432 745.7505,427.072 725.3105,459.618 C696.4845,501.158 664.4915,540.282 628.2415,575.723 C612.1775,587.59 599.0195,557.049 587.3435,548.79 C531.9625,489.211 485.9755,420.721 458.4105,343.868 C448.4105,330.73 448.6885,261.028 436.5585,265.538 C418.6255,276.855 391.8835,278.703 378.5985,294.483 C373.8085,313.693 389.4865,624.251 361.0775,503.298 C357.1675,473.531 372.7005,416.586 357.3295,395.759 C275.2215,395.023 193.2325,399.141 111.1605,400.257 C106.4585,400.331 104.7455,401.944 105.2205,406.833 C109.0845,443.578 110.6325,480.509 111.0965,517.423 C106.1005,563.66 139.0995,646.107 96.8895,673.301 C112.4555,649.762 97.0445,610.578 100.6855,581.905 C99.7965,524.309 96.7715,466.785 96.4935,409.182 C97.3515,393.468 76.0145,403.296 65.8025,399.178 C50.5755,394.271 60.1595,368.569 56.4755,355.884 C56.3025,347.327 57.9835,345.444 66.5965,344.819 C144.2385,339.813 222.0785,337.706 299.8695,336.719 C316.5015,332.018 357.9895,346.73 363.2275,328.021 C367.8345,275.843 362.7135,311.739 338.1025,303.633 C340.3255,278.27 411.9575,264.296 433.9235,249.128 C450.9435,240.603 440.3735,215.51 451.4125,200.715 C458.1265,169.468 476.4385,140.615 501.7575,120.531 C657.7135,2.644 851.5135,145.756 787.4595,330.146 C785.0315,339.943 784.9945,340.027 794.5625,339.018 C810.6615,340.268 815.8565,334.938 812.6135,318.92 C811.8655,293.825 810.7745,268.737 810.1015,243.638 C814.3465,225.056 796.6135,184.265 825.7485,185.151 C859.7575,182.686 893.9545,182.792 928.0775,182.14 C954.6455,182.926 941.4615,351.134 947.0865,381.887 C952.9855,399.164 981.5305,397.936 995.7435,408.14 C1015.7225,412.298 1026.7375,355.944 1039.8285,341.418 C1046.9725,330.196 1027.0575,335.878 1021.9625,336.588 C1005.6225,345.062 1002.1285,291.349 1019.1125,305.689 C1021.1775,311.217 1020.3425,321.544 1023.9365,325.155 C1059.3225,327.243 1096.8485,320.855 1132.7555,320.304 C1148.8025,315.668 1184.1315,330.402 1185.5265,307.134 C1205.9795,288.678 987.2335,308.971 1046.5995,294.763 C1089.3065,291.398 1138.4505,289.633 1186.6145,287.501 C1201.1785,284.377 1204.8475,332.243 1188.0895,328.872 C1165.6085,329.633 1165.7895,329.714 1167.3535,352.057 C1171.3185,418.967 1173.8865,483.232 1175.1845,551.858 C1145.4765,524.026 1184.6005,487.217 1129.8155,494.101 C1124.8075,499.68 1120.3375,497.909 1115.6725,492.026 C1112.8255,466.09 1156.2015,490.134 1159.9885,473.503 C1160.3575,438.146 1159.8695,402.81 1159.2015,367.462 C1161.0225,355.393 1145.4605,363.875 1138.5005,362.377 C1125.9645,361.002 1124.3145,363.88 1126.2375,375.868 C1122.7925,385.322 1167.2825,368.627 1146.8815,387.866 C1109.4325,399.267 1110.1255,352.085 1125.2785,351.322 C1136.4235,347.954 1163.7935,354.803 1158.9175,337.344 C1145.0525,323.325 1079.7085,338.433 1054.2515,334.482 C1036.0445,353.397 1030.2985,387.332 1016.1355,411.102 C1012.7745,421.392 1032.7585,421.004 1039.0295,425.593 C1047.6265,428.71 1048.6745,431.056 1046.1705,440.547 C1043.4835,462.888 1051.5065,485.321 1051.3625,507.846" id="Fill-9" fill="#5556b8"/>
            <path d="M961.981,966.0449 C958.489,954.2609 948.101,966.4759 946.163,972.7859 C950.966,974.9849 959.911,970.6589 961.981,966.0449 M1010.309,949.4349 C989.008,951.0009 985.856,966.9779 1007.711,971.4679 C1020.469,967.7379 1021.182,956.0329 1010.309,949.4349 M1027.453,889.8889 C1025.553,875.5089 1004.885,881.8189 1005.197,894.6299 C1001.322,910.5819 1032.011,906.9719 1027.453,889.8889 M655.313,839.0649 C659.739,858.2459 664.355,838.0139 670.003,845.3239 C715.404,843.5569 667.336,794.0269 655.313,839.0649 M973.138,1041.2979 C963.031,1025.1939 976.608,1001.8459 956.022,994.3719 C960.635,993.1609 968.041,994.5769 965.613,987.7879 C962.06,982.6839 965.661,975.0169 959.842,972.0009 C953.191,974.4369 954.773,988.0309 945.848,985.3289 C939.648,985.6269 943.752,978.6529 939.558,976.1919 C925.204,965.7109 952.403,953.7569 955.144,942.0789 C951.712,930.0839 919.959,987.3389 917.726,959.9409 C923.458,944.6989 954.821,933.9759 949.592,917.8979 C935.25,870.4609 880.746,840.3259 834.468,838.2119 C821.407,839.9179 810.334,852.6919 794.862,849.8089 C780.526,847.9449 769.512,861.1019 755.464,859.1429 C750.871,857.9389 749.443,864.2049 748.142,863.9209 C740.324,862.2169 744.899,867.6829 743.757,870.0419 C735.595,888.7999 721.609,903.7319 708.551,919.1489 C683.17,931.9389 728.483,885.4189 733.336,881.2189 C744.751,871.2739 732.556,859.7339 724.544,873.1329 C709.667,899.7549 670.168,922.4849 710.214,878.4009 C708.109,862.1799 682.867,898.3169 676.032,905.3539 C672.12,914.0179 658.882,913.4789 662.814,902.9649 C683.901,882.0249 682.058,873.9129 651.541,882.7079 C634.91,886.4269 618.165,889.8259 601.726,894.4709 C601.971,892.5889 601.599,889.5299 602.564,889.0259 C610.391,886.0349 601.581,880.4559 605.118,874.3489 C614.845,851.2239 610.559,822.9509 629.683,804.0939 C636.941,795.2779 644.891,790.3869 645.067,778.1659 C653.691,769.2199 664.998,762.3569 669.273,750.1509 C674.465,745.2349 685.449,747.8149 678.757,738.4629 C685.293,737.9329 685.324,730.9629 689.261,727.8609 C687.107,788.1459 727.834,847.9289 793.932,826.3869 C856.63,800.2149 843.911,825.4029 900.704,836.5209 C940.407,854.1779 992.406,818.9609 1020.353,838.7589 C1031.967,851.3929 1047.445,858.7509 1063.258,864.2779 C1123.508,881.9499 1105.74,848.9119 1096.622,954.5329 C1071.69,963.0219 1052.072,981.6489 1032.685,995.5319 C1013.128,1012.8449 1004.123,1044.2009 973.138,1041.2979" id="Fill-11" fill="#4c8dc9"/>
            <path d="M1134.4554,862.1587 C1187.0954,857.5077 1240.2674,834.9147 1274.7904,794.0947 C1280.3234,778.8197 1262.0134,764.8587 1265.0644,747.9527 C1264.4554,735.1577 1250.2914,735.6457 1240.7904,738.0047 C1208.1974,729.8097 1091.6594,863.8387 1134.4554,862.1587 M1084.0034,607.4077 C981.9434,607.7407 946.8884,741.2497 1007.4924,811.6187 C1087.6724,823.5397 1241.6634,608.4347 1084.0034,607.4077 M1161.3784,1015.8517 C1186.1614,1013.0117 1215.7414,1011.1197 1231.1854,989.4427 C1308.0554,961.3527 1116.2504,930.0797 1116.40331,965.1477 C1122.3414,987.2277 1140.4894,1023.8157 1160.2224,1016.7007 C1160.6084,1016.4177 1160.9934,1016.1347 1161.3784,1015.8517 M987.2824,1039.9247 C1009.5654,1034.2777 1015.5244,1008.9217 1032.6844,995.5297 C1052.0344,981.6487 1071.7434,963.0267 1096.6214,954.5357 C1105.8544,848.7187 1123.2944,881.9837 1063.2604,864.2797 C1047.4454,858.7507 1031.9674,851.3927 1020.3514,838.7697 C992.6064,819.0087 940.3274,854.1237 900.7044,836.5047 C844.0444,825.4197 856.4974,800.2227 793.9264,826.3997 C727.9764,847.9427 686.9754,788.1007 689.2674,727.8557 C687.4574,709.4437 681.1774,706.4677 702.7774,704.4267 C694.2344,724.1327 699.2154,742.6477 702.7654,763.0947 C708.9624,822.6657 771.4334,831.2327 817.8744,811.3007 C853.3184,808.7037 781.0714,770.0207 782.1824,725.6037 C772.1974,691.2727 796.8824,610.1797 826.7564,616.9767 C768.6394,662.0517 779.8914,756.1207 836.9684,796.9857 C848.6824,806.4347 876.5584,770.9477 888.0894,763.5077 C960.3454,702.6407 958.2544,565.7417 836.8984,611.1727 C816.2234,613.2737 857.5784,595.7967 863.8244,596.6187 C957.7494,584.6977 962.4094,687.8987 914.0404,744.0297 C898.7824,766.6487 880.0674,785.5547 856.9384,800.1157 C849.8354,804.5877 849.8124,807.1007 857.7274,810.6067 C901.4054,834.5437 950.9174,836.8907 998.1614,822.3867 C972.1064,774.1487 949.8864,698.9557 995.0104,644.1657 C1066.5494,556.5707 1218.2284,607.4147 1136.2994,725.7147 C1113.6364,769.9257 1071.2314,803.4507 1025.5524,822.1687 C1018.0024,841.4737 1085.0244,862.4867 1104.2144,862.6297 C1113.1814,866.2967 1114.5564,853.4387 1118.1154,848.0387 C1129.6534,819.3417 1146.1454,793.8237 1168.2534,772.2407 C1189.3824,746.0037 1221.9504,737.1937 1249.9174,724.7437 C1250.9174,721.4677 1255.3614,719.6687 1258.1404,722.7187 C1225.1994,661.5397 1235.1804,645.6797 1262.1234,717.5127 C1273.7774,759.5727 1285.1464,799.3367 1288.7564,843.9057 C1287.0314,861.9167 1300.5734,876.9257 1291.5604,894.6487 C1285.3894,904.1187 1289.4214,919.9407 1280.0494,926.1667 C1278.3354,922.1707 1274.2424,918.7977 1281.0954,914.4817 C1287.0784,909.7907 1280.7654,898.2587 1283.9134,891.9857 C1286.2384,886.8977 1278.0424,882.6427 1284.5544,878.2107 C1284.9434,877.8657 1284.0084,875.5697 1283.2444,874.4937 C1282.2704,873.1237 1280.1994,878.8667 1279.6844,874.2607 C1279.7884,873.1057 1282.8004,868.9777 1284.2254,870.5897 C1274.3314,767.0897 1294.5844,819.8057 1206.0174,853.8347 C1180.0104,864.8617 1153.5734,871.8687 1125.5894,873.3647 C1111.7594,874.3577 1115.5094,896.2997 1112.3834,906.8407 C1115.6064,917.4217 1102.0304,951.0007 1120.5254,946.0127 C1216.9994,918.2437 1257.9754,1003.3727 1278.8514,929.7757 C1275.6484,973.1267 1236.3864,999.0767 1200.6554,1016.4897 C1170.3414,1016.5367 1142.5844,1033.5957 1111.1144,1027.1537 C1151.7794,1030.1537 1120.2004,1002.7257 1111.1184,983.0897 C1107.2134,978.0417 1106.9294,961.2437 1097.9154,964.2937 C1079.1954,969.8217 983.7764,1036.5287 1039.1684,1035.3257 C1031.3394,1039.8417 1023.1524,1035.9527 1015.1624,1036.0937 C1005.5964,1035.3947 997.4424,1040.9267 987.2824,1039.9247" id="Fill-13" fill="#2fc2ea"/>
            <path d="M1225.3156,904.0923 C1225.8866,889.9623 1210.1576,893.9143 1212.5706,904.3463 C1213.8996,913.8373 1226.0106,915.5903 1225.3156,904.0923 M1161.8936,910.8263 C1178.1656,911.7243 1173.0266,882.7463 1159.5356,894.4633 C1156.1346,895.5883 1153.1406,901.4883 1150.0106,895.8433 C1136.6636,898.9603 1156.4056,908.1433 1161.8936,910.8263 M1278.8516,929.7753 C1263.6136,974.4833 1254.5356,962.2513 1216.9896,949.4893 C1185.1796,940.7403 1153.0516,938.0103 1120.5296,946.0103 C1112.1816,948.0643 1111.3316,947.3743 1111.3286,938.6523 C1106.8096,825.2823 1151.1916,906.2423 1258.4506,823.9293 C1269.1806,824.8293 1268.0126,815.9523 1274.3466,810.1403 C1285.5836,807.6223 1280.7366,858.6883 1283.2786,869.7473 C1279.1926,873.1303 1277.7086,877.7933 1283.2436,874.4933 C1284.0086,875.5703 1284.9426,877.8653 1284.5526,878.2113 C1278.0416,882.6553 1286.2386,886.8853 1283.9166,891.9873 C1280.7616,898.1463 1287.0856,909.9443 1281.0936,914.4813 C1271.9806,920.1013 1282.6736,923.7593 1278.8516,929.7753" id="Fill-15" fill="#4c8dc9"/>
            <path d="M1039.1681,1035.3252 C983.7841,1036.5022 1079.1331,969.8912 1097.9121,964.2952 C1106.4461,962.1362 1125.3441,1012.3762 1134.5661,1022.6062 C1103.4661,1029.4462 1071.6741,1042.0122 1039.1681,1035.3252" id="Fill-17" fill="#4c8dc9"/>
            <path d="M829.5367,133.1187 C801.4157,141.1497 808.3377,131.9387 825.8907,121.3037 C827.2007,115.0627 818.4567,106.3827 824.0097,98.9737 C836.5927,102.3137 837.6697,122.9237 852.3057,109.4157 C861.3257,104.3577 868.9487,117.8017 858.7487,121.5407 C854.9407,123.6597 848.7017,125.0337 847.2277,128.2667 C854.3957,154.9007 841.3157,156.5957 829.5367,133.1187" id="Fill-19" fill="#5556b8"/>
            <path d="M426.6308,117.8286 C427.7328,110.6356 422.1098,112.6366 419.6358,111.7626 C398.8528,110.5486 421.0218,138.9536 426.6308,117.8286 M419.7408,98.5686 C449.5818,96.7346 441.1358,143.5116 419.8388,141.5286 C400.8508,141.2556 390.6838,97.7126 419.7408,98.5686" id="Fill-21" fill="#5556b8"/>
            <path d="M334.1414,1142.981 C345.6214,1132.63 370.7554,1104.564 354.0694,1135.602 C370.2844,1127.268 379.9344,1108.373 396.5924,1101.76 C390.2964,1114.326 351.6264,1169.689 352.3314,1137.875 C346.1394,1142.655 342.1514,1145.473 334.1414,1142.981" id="Fill-23" fill="#4c8dc9"/>
            <path d="M569.5676,56.564 C557.2826,79.15 539.2826,16.624 543.5046,8.075 C559.6186,16.296 561.4646,40.845 569.5676,56.564" id="Fill-25" fill="#5556b8"/>
            <path d="M1234.6735,663.75 C1216.9575,641.964 1209.6355,615.201 1195.5075,591.422 C1189.7115,576.701 1175.1955,568.802 1176.1355,551.876 C1191.6005,560.153 1191.7455,581.49 1202.6195,595.052 C1220.3845,613.864 1222.2235,641.057 1234.6735,663.75" id="Fill-27" fill="#2fc2ea"/>
            <path d="M702.3792,24.8188 C696.5232,44.5378 644.4092,97.2758 673.8352,44.2288 C680.5272,36.9988 691.6012,10.8908 702.3792,24.8188" id="Fill-29" fill="#5556b8"/>
            <path d="M169.7504,1041.2598 C168.3884,1047.7208 158.6094,1047.5458 154.9664,1042.1368 C175.6134,1034.6958 134.6154,998.8418 189.2134,1009.6928 C203.3904,1014.9178 189.5064,1024.3948 180.6664,1022.4608 C165.7884,1016.3538 169.7864,1032.0638 169.7504,1041.2598" id="Fill-31" fill="#2fc2ea"/>
            <path d="M319.8154,1136.7642 C327.3304,1129.8852 371.2044,1070.6422 360.8034,1100.9862 C360.1234,1107.3892 346.6664,1101.5322 350.6924,1111.8722 C342.3534,1117.0632 324.4564,1157.0632 319.8154,1136.7642" id="Fill-33" fill="#4c8dc9"/>
            <path d="M715.8401,1158.6504 C729.3461,1141.7564 743.7021,1125.6984 760.9711,1112.4004 C750.0951,1130.5234 737.4241,1155.5174 715.8401,1158.6504" id="Fill-35" fill="#4c8dc9"/>
            <g id="Group-39" transform="translate(614.000000, 0.750000)">
                <mask id="masterspot-illustrationslocation-map-mask-6" fill="#fff">
                    <use xlink:href="#masterspot-illustrationslocation-map-path-5"/>
                </mask>
                <g id="Clip-38"/>
                <path d="M0.0534,35.3979 C4.2094,29.2899 -4.7176,0.3579 11.6604,0.2539 C16.3364,11.2049 7.7084,79.7599 0.0534,35.3979" id="Fill-37" fill="#5556b8" mask="url(#masterspot-illustrationslocation-map-mask-6)"/>
            </g>
            <path d="M702.7022,1157.3779 C715.9132,1146.4129 725.3632,1118.3899 742.6412,1118.0159 C729.8892,1128.2669 718.9102,1161.1819 702.7022,1157.3779" id="Fill-40" fill="#4c8dc9"/>
            <path d="M744.2205,1154.8911 C776.6165,1111.5461 796.3345,1111.0111 752.4895,1154.0831 C750.4345,1154.2801 746.8965,1154.6991 744.2205,1154.8911" id="Fill-42" fill="#4c8dc9"/>
            <path d="M1064.4313,292.3135 C1057.0653,298.4485 1047.4043,293.2945 1038.8043,294.4545 C1031.7653,296.7845 1038.7033,301.1445 1043.4233,300.0735 C1030.7763,299.1985 1020.4893,307.0335 1010.6763,302.0045 C1011.5473,293.2245 1025.1883,303.4935 1030.5273,298.1595 C1025.6743,293.7645 1018.4663,296.6015 1012.4683,295.9095 C1029.7023,293.3315 1047.0193,292.4045 1064.4313,292.3135" id="Fill-44" fill="#4c8dc9"/>
            <path d="M117.0283,1024.082 C124.0273,1023.64 131.6013,1022.981 135.5843,1029.528 C145.0843,1026.018 138.6783,1034.117 140.4823,1036.113 C132.9583,1031.85 122.6093,1030.767 117.0283,1024.082" id="Fill-46" fill="#2fc2ea"/>
            <path d="M614.0534,36.1479 C616.8934,43.1059 612.9374,52.7099 623.5894,50.4899 C616.4674,63.2479 609.9354,43.0299 614.0534,36.1479" id="Fill-48" fill="#4c8dc9"/>
            <path d="M1012.4686,295.9097 C1018.4676,296.6007 1025.6726,293.7647 1030.5286,298.1597 C1026.9186,300.3927 1010.2896,300.4307 1012.4686,295.9097" id="Fill-50" fill="#5556b8"/>
            <path d="M623.5983,50.4316 C624.7943,43.9586 620.9763,34.6756 626.1753,30.0736 C624.3673,36.7416 628.4023,44.1446 623.5983,50.4316" id="Fill-52" fill="#4c8dc9"/>
            <path d="M1100.2618,290.6333 C1091.8638,291.2063 1083.4658,291.7793 1075.0778,292.3483 C1083.4788,291.7743 1091.8698,291.2033 1100.2618,290.6333" id="Fill-54" fill="#4c8dc9"/>
            <path d="M88.9874,682.6221 C87.0184,684.7261 85.0494,686.8301 83.1094,688.9201 C85.0874,686.8111 87.0374,684.7171 88.9874,682.6221" id="Fill-56" fill="#5556b8"/>
            <path d="M344.4253,1144.3247 C345.6223,1141.0277 349.7813,1140.0547 352.3313,1137.8747 C350.4773,1142.0957 349.9133,1146.4387 344.4253,1144.3247" id="Fill-58" fill="#7eeac9"/>
            <path d="M141.9147,1037.2803 C145.7447,1038.6233 149.5737,1039.9663 153.4037,1041.3093 C149.5737,1039.9663 145.7437,1038.6233 141.9147,1037.2803" id="Fill-60" fill="#2fc2ea"/>
            <path d="M614.5943,28.3169 C618.8803,29.4029 617.1643,30.1429 614.3113,32.1019 C614.4073,30.8369 614.5003,29.5769 614.5943,28.3169" id="Fill-62" fill="#4c8dc9"/>
            <path d="M617.5744,7.7012 C616.9034,10.4032 616.2334,13.1052 615.5624,15.8012 C616.2334,13.0972 616.9044,10.3992 617.5744,7.7012" id="Fill-64" fill="#4c8dc9"/>
            <path d="M113.1548,1019.9253 C114.3908,1021.2713 115.6268,1022.6163 116.8618,1023.9623 C115.6248,1022.6163 114.3898,1021.2703 113.1548,1019.9253" id="Fill-66" fill="#2fc2ea"/>
            <path d="M626.9639,19.9106 C627.0719,18.7366 627.1799,17.5626 627.2879,16.3906 C627.1799,17.5666 627.0719,18.7386 626.9639,19.9106" id="Fill-68" fill="#4c8dc9"/>
            <path d="M1112.4579,290.8477 C1110.3839,291.1427 1108.3089,291.4377 1106.2469,291.7337 C1108.3249,291.4387 1110.3909,291.1437 1112.4579,290.8477" id="Fill-70" fill="#4c8dc9"/>
            <path d="M1072.9205,292.9106 C1072.1695,293.6686 1071.4185,294.4276 1070.6675,295.1856 C1069.3235,292.3416 1070.2075,292.3936 1072.9205,292.9106" id="Fill-72" fill="#4c8dc9"/>
            <path d="M109.531,1017.5474 C110.704,1018.3064 111.877,1019.0654 113.049,1019.8244 C111.875,1019.0644 110.703,1018.3064 109.531,1017.5474" id="Fill-74" fill="#2fc2ea"/>
            <path d="M94.5456,677.8013 C94.5456,677.8013 94.6256,677.7313 94.6266,677.7323 C94.6266,677.7323 94.5456,677.8013 94.5456,677.8013" id="Fill-76" fill="#5556b8"/>
            <g id="Group-80" transform="translate(625.000000, 0.750000)">
                <mask id="masterspot-illustrationslocation-map-mask-8" fill="#fff">
                    <use xlink:href="#masterspot-illustrationslocation-map-path-7"/>
                </mask>
                <g id="Clip-79"/>
                <path d="M1.373,1.1011 L0.586,1.0641 C0.566,-0.1289 0.841,0.5151 1.373,1.1011" id="Fill-78" fill="#4c8dc9" mask="url(#masterspot-illustrationslocation-map-mask-8)"/>
            </g>
            <path d="M752.0054,1154.1851 C752.1124,1153.7611 752.2194,1153.8211 752.4894,1154.0831 C752.4804,1154.0821 752.0054,1154.1851 752.0054,1154.1851" id="Fill-81" fill="#7eeac9"/>
            <path d="M111.4613,769.4272 C59.7113,828.8322 144.9323,945.9762 208.4263,878.7152 C276.7853,774.5082 153.8323,740.2182 134.0083,824.2712 C132.1663,864.8012 203.2913,842.7332 173.5583,821.8342 C163.3623,819.3332 174.5133,839.4312 159.6873,828.8812 C136.1823,803.2722 182.4093,799.0922 191.9343,820.8282 C210.7203,858.3042 150.6223,879.3162 131.0363,848.2572 C99.1733,807.2602 151.2673,754.7472 196.1833,767.1642 C265.8653,778.2952 246.4973,895.5722 186.9393,909.6162 C114.7843,931.8532 51.2543,808.0562 111.4613,769.4272" id="Fill-83" fill="#2fc2ea"/>
            <path d="M293.0717,510.6772 C299.6457,507.0142 318.6077,505.0662 319.5887,510.8742 C304.9047,510.1472 299.6657,523.3902 290.9727,530.9832 C284.1697,536.2122 249.8127,585.4552 277.5087,566.2182 C246.2137,593.7702 274.1727,654.9772 317.6187,660.2532 C351.6527,665.9282 397.5647,643.3772 397.4057,605.5492 C392.2677,588.6042 391.2397,585.2412 397.3667,571.7992 C441.0397,633.4692 358.0407,697.7572 299.1047,668.1022 C258.9807,647.9132 242.6387,595.6492 262.7407,555.4932 C266.0477,539.0152 297.8047,521.5632 293.0717,510.6772" id="Fill-85" fill="#2fc2ea"/>
            <path d="M381.1288,565.9863 C289.9498,510.3843 268.1528,656.4483 348.8988,607.8753 C362.2658,596.6673 339.8268,586.8603 335.5488,599.7203 C334.7068,605.7103 332.0498,604.8143 328.9008,600.6093 C315.9808,581.2733 353.2598,572.8803 361.8068,587.4063 C378.9818,610.6203 347.5468,639.6513 322.5818,632.1623 C266.1988,622.3853 284.1008,548.7023 329.9548,539.4543 C350.4988,543.7893 377.1448,540.5783 389.7058,563.6003 C385.9488,564.3373 381.8098,560.4953 381.1288,565.9863" id="Fill-87" fill="#2fc2ea"/>
            <path d="M522.7239,724.9873 C509.4209,782.7773 491.8709,732.8623 481.3199,738.8873 C477.3979,748.7143 477.8439,773.0093 461.7369,761.8163 C454.2559,759.4673 434.9599,734.5663 433.2079,750.7083 C435.1069,762.8173 429.0969,791.6913 421.6009,765.8863 C417.8189,734.4153 431.0449,717.7813 457.5389,743.7523 C470.6979,757.6943 460.1499,693.5633 494.4819,726.4783 C507.7019,741.6353 508.4849,711.4863 513.3659,702.3483 C531.1399,677.9423 546.2769,756.2213 522.7239,724.9873" id="Fill-89" fill="#2fc2ea"/>
            <path d="M161.4215,657.1489 C111.1225,650.0999 187.3585,629.9539 185.1855,659.0669 C186.6645,664.1589 180.4765,681.7619 190.7085,676.8089 C226.7835,658.1939 196.2085,705.9509 219.7435,697.9789 C253.7185,695.2269 232.9105,727.0189 237.9025,744.1449 C240.0425,747.6389 240.9945,751.9099 236.0145,754.3269 C221.6645,756.9939 218.8195,734.2459 221.9585,724.0869 C223.7675,716.3049 223.6325,716.2739 215.5055,717.1719 C201.3495,718.7379 193.3355,714.6919 187.6865,701.7419 C186.0035,697.8849 183.9045,698.0869 180.8995,697.8549 C147.4855,698.9719 193.6445,645.8449 161.4215,657.1489" id="Fill-91" fill="#2fc2ea"/>
            <path d="M365.5036,943.4858 C333.8836,941.5528 373.5796,794.7328 453.3896,867.6948 C484.1576,884.8568 477.0796,959.0918 463.0996,896.4608 C415.9876,823.6248 359.6756,873.4218 365.5036,943.4858" id="Fill-93" fill="#2fc2ea"/>
            <path d="M215.6882,999.9248 C200.3752,1020.3568 202.0942,1001.8808 199.3022,985.7008 C196.6442,964.5628 216.2142,971.3128 228.5872,977.1238 C252.4012,986.0328 232.5702,931.5108 258.4252,947.9108 C266.4512,956.0808 294.3072,969.7818 269.0272,970.8208 C264.9372,980.8438 253.8672,976.5738 247.2092,981.5538 C217.7972,1010.1368 212.5432,971.2388 215.6882,999.9248" id="Fill-95" fill="#2fc2ea"/>
            <path d="M609.886,654.3989 C624.721,643.9649 645.028,645.0849 662.572,640.1699 C590.604,646.1179 584.204,750.9969 645.069,778.1719 C634.907,809.8889 593.62,739.5149 594.811,722.9759 C585.999,697.4239 606.744,676.4279 609.886,654.3989" id="Fill-97" fill="#2fc2ea"/>
            <path d="M353.4853,943.8774 C345.4093,950.9924 309.3023,1011.1034 307.8323,978.6894 C310.7253,970.8904 326.0513,962.9604 321.0603,955.3034 C324.4143,942.9084 342.9973,951.4334 353.4853,943.8774" id="Fill-99" fill="#4c8dc9"/>
            <path d="M281.1289,968.4106 C276.3299,958.7306 308.3329,950.2786 315.2309,956.7876 C304.3429,962.0316 292.7099,965.1086 281.1289,968.4106" id="Fill-101" fill="#4c8dc9"/>
            <path d="M111.4613,769.4272 C95.8443,770.0792 122.2423,748.1102 130.2813,753.4872 C126.7153,760.8612 117.4303,763.9602 111.4613,769.4272" id="Fill-103" fill="#4c8dc9"/>
            <path d="M315.3308,527.562 C319.4088,529.139 326.5108,528.185 328.3038,532.589 C326.8428,538.651 303.2158,529.248 315.3308,527.562" id="Fill-105" fill="#4c8dc9"/>
            <path d="M381.2147,566.0361 C384.9317,565.2281 386.0997,566.7011 384.9677,570.2301 C383.7167,568.8331 382.4657,567.4341 381.2147,566.0361" id="Fill-107" fill="#2fc2ea"/>
            <path d="M189.2895,1009.7642 C189.3815,1009.5512 189.4735,1009.3382 189.5665,1009.1252 C189.4975,1009.3332 189.1345,1009.5872 189.2895,1009.7642" id="Fill-109" fill="#2fc2ea"/>
            <path d="M389.1926,577.9688 C389.9646,578.4898 390.7366,579.0118 391.5086,579.5328 C390.7366,579.0108 389.9646,578.4898 389.1926,577.9688" id="Fill-111" fill="#2fc2ea"/>
            <path d="M366.534,937.4302 C362.783,800.8232 493.141,881.9182 460.629,923.2302 C439.591,933.1872 444.081,899.5572 429.058,893.4752 C365.399,875.1872 400.265,931.0552 366.534,937.4302" id="Fill-113" fill="#545bbe"/>
            <path d="M381.8062,931.7324 C374.2632,892.2584 424.1302,871.4864 440.2772,908.3924 C450.5172,928.1354 448.0262,927.2824 427.5052,935.4364 C423.6552,937.1204 419.4562,939.9684 416.8852,933.6514 C448.7572,909.5984 417.9262,890.2854 397.5392,913.4044 C404.5242,910.2004 424.3752,906.9784 412.2112,919.5734 C405.4612,924.5354 404.5952,926.7624 407.4812,934.0224 C400.8862,940.7964 384.8982,941.7454 381.8062,931.7324" id="Fill-115" fill="#2fc2ea"/>
            <path d="M424.4436,1023.043 C400.2666,1046.119 405.5896,1027.529 421.6766,1012.882 C433.9826,996.63 484.2106,961.788 448.4596,995.915 C444.4686,999.719 438.9166,1002.373 438.3796,1008.879 C442.9976,1011.554 461.0506,991.298 470.1346,986.474 C485.9136,980.918 419.5196,1053.234 410.2266,1046.282 C410.5236,1036.342 450.1256,1000.897 424.4436,1023.043" id="Fill-117" fill="#4c8dc9"/>
            <path d="M722.3865,1019.7993 C721.8655,1018.0883 721.1165,1017.8933 720.0035,1019.0413 C719.4445,1021.1833 720.9865,1020.4763 722.3865,1019.7993 M729.1765,1009.6413 C736.8605,1003.6173 761.1045,981.0563 744.6355,1004.4413 C733.4415,1011.9673 722.2535,1043.7893 707.6455,1029.1453 C703.0925,1025.1793 705.4765,1021.5623 708.2545,1017.9473 C723.5585,998.3913 741.1885,979.2763 760.3465,963.6923 C774.6025,963.7163 732.9135,996.6733 729.3085,1009.7473 C723.7475,1015.2643 725.2675,1016.4633 729.1765,1009.6413" id="Fill-119" fill="#4c8dc9"/>
            <path d="M921.1085,1069.0415 C901.8375,1092.2145 886.1285,1120.9375 859.9905,1136.9535 C840.1665,1135.1135 867.1715,1117.5185 872.7675,1111.0825 C887.8165,1099.0645 903.8375,1070.5255 921.1085,1069.0415" id="Fill-121" fill="#4c8dc9"/>
            <path d="M871.1973,884.0547 C868.0353,891.6757 814.1653,970.7417 822.3533,932.1447 C831.3073,922.1647 861.5093,875.6447 871.1973,884.0547" id="Fill-123" fill="#4c8dc9"/>
            <path d="M496.9203,1075.876 C490.1843,1083.917 430.0773,1151.812 434.2663,1125.46 C453.1653,1109.648 474.2343,1079.354 496.9203,1075.876" id="Fill-125" fill="#4c8dc9"/>
            <path d="M891.1505,1017.02 C886.2985,1034.905 811.8125,1111.469 848.4425,1057.585 C862.8285,1045.937 873.8475,1020.697 891.1505,1017.02" id="Fill-127" fill="#4c8dc9"/>
            <path d="M581.7665,1099.8931 C578.7145,1096.4801 573.2145,1094.9801 577.8095,1090.5221 C637.5405,1026.1121 643.1855,1047.1931 581.7665,1099.8931" id="Fill-129" fill="#4c8dc9"/>
            <path d="M252.9837,991.3652 C239.5747,1008.2752 223.0057,1032.1522 203.0957,1038.9652 C197.8237,1022.4692 226.5357,1013.3402 234.6817,1000.8412 C238.9477,997.8192 249.4297,984.2272 252.9837,991.3652" id="Fill-131" fill="#4c8dc9"/>
            <path d="M873.2137,1009.6963 C866.8137,1021.0283 837.3667,1064.7863 825.9247,1062.1163 C823.0887,1047.3583 860.4827,1018.6643 873.2137,1009.6963" id="Fill-133" fill="#4c8dc9"/>
            <path d="M381.8062,931.7324 C387.2722,944.9114 354.5372,955.2044 354.4432,975.5044 C309.4162,1006.0904 370.3802,931.0004 381.8062,931.7324" id="Fill-135" fill="#4c8dc9"/>
            <path d="M882.4634,893.8721 C867.9074,914.5601 853.3284,941.1341 832.5744,954.6831 C839.0634,932.8621 865.6624,905.6571 882.4634,893.8721" id="Fill-137" fill="#4c8dc9"/>
            <path d="M407.4812,934.0225 C401.2712,924.2515 413.3052,921.5845 416.2112,914.2375 C412.9082,904.6415 403.9652,913.2275 397.5442,913.4075 C428.2922,882.4825 448.8692,927.0895 407.4812,934.0225" id="Fill-139" fill="#545bbe"/>
            <path d="M471.4192,1011.4229 C467.6772,1021.1969 422.6642,1076.3599 430.7332,1048.2419 C443.1242,1039.1989 459.4162,1008.6519 471.4192,1011.4229" id="Fill-141" fill="#4c8dc9"/>
            <path d="M602.2556,966.4146 C597.2096,971.7896 538.5576,1038.8466 555.2976,1004.7076 C570.5186,994.2236 582.9956,963.3736 602.2556,966.4146" id="Fill-143" fill="#4c8dc9"/>
            <path d="M923.2044,1087.6567 C910.0764,1106.9577 896.3524,1130.7297 874.6464,1140.4687 C887.0794,1120.9377 903.9734,1099.7137 923.2044,1087.6567" id="Fill-145" fill="#4c8dc9"/>
            <path d="M758.701,1010.1099 C751.692,1017.8089 711.39,1077.7579 710.655,1056.5159 C726.816,1043.1559 741.667,1017.2419 758.701,1010.1099" id="Fill-147" fill="#4c8dc9"/>
            <path d="M615.2936,972.8604 C599.9576,988.1854 586.9126,1006.1474 569.8426,1018.5524 C565.2666,1004.6244 601.9506,975.7234 615.2936,972.8604" id="Fill-149" fill="#4c8dc9"/>
            <path d="M625.0655,1096.7241 C608.6805,1113.1931 592.7585,1137.1691 571.9605,1146.3401 C586.1055,1128.1801 604.4185,1106.8121 625.0655,1096.7241" id="Fill-151" fill="#4c8dc9"/>
            <path d="M508.4952,1103.8604 C502.0782,1110.3374 463.8362,1161.0414 463.5272,1141.3674 C477.4502,1130.6904 493.1832,1104.9464 508.4952,1103.8604" id="Fill-153" fill="#4c8dc9"/>
            <path d="M300.3889,1095.5186 C295.1449,1082.5706 322.3269,1069.1866 330.7659,1059.1696 C340.4779,1062.5066 310.1439,1094.5876 300.3889,1095.5186" id="Fill-155" fill="#4c8dc9"/>
            <path d="M322.8069,1046.4341 C319.0219,1054.4541 287.0309,1094.0351 284.7819,1074.3311 C297.0299,1066.7351 311.0029,1048.1651 322.8069,1046.4341" id="Fill-157" fill="#4c8dc9"/>
            <path d="M496.9286,1094.1309 C489.0956,1101.5359 458.3366,1146.5109 452.0206,1135.1849 C465.8396,1122.4789 480.7426,1099.4989 496.9286,1094.1309" id="Fill-159" fill="#4c8dc9"/>
            <path d="M245.231,1017.7168 C235.744,1026.6188 230.967,1048.1538 217.151,1048.3738 C216.854,1035.9278 233.812,1022.7788 245.231,1017.7168" id="Fill-161" fill="#4c8dc9"/>
            <path d="M214.8455,1078.0552 C209.3565,1084.7632 191.4105,1120.7732 189.1415,1101.3972 C195.5255,1093.2132 203.3045,1076.7702 214.8455,1078.0552" id="Fill-163" fill="#4c8dc9"/>
            <path d="M278.9364,1061.396 C272.7794,1052.55 292.7914,1037.189 299.7584,1034.999 C304.3964,1039.325 284.6284,1057.984 278.9364,1061.396" id="Fill-165" fill="#4c8dc9"/>
            <path d="M929.003,1100.4473 C923.578,1106.7573 906.348,1140.0453 902.136,1126.1963 C910.659,1119.8793 919.986,1097.0693 929.003,1100.4473" id="Fill-167" fill="#4c8dc9"/>
            <path d="M609.665,991.2222 C607.575,997.2392 580.195,1032.1922 577.885,1019.0372 C587.751,1011.2542 599.264,992.6592 609.665,991.2222" id="Fill-169" fill="#4c8dc9"/>
            <path d="M881.858,1048.4209 C871.753,1059.0529 864.87,1075.1289 852.65,1082.5979 C852.934,1071.7259 873.428,1049.5359 881.858,1048.4209" id="Fill-171" fill="#4c8dc9"/>
            <path d="M870.9551,926.5576 C866.1221,938.6256 858.1341,952.0956 847.4161,958.8416 C846.2151,948.1056 863.8001,928.8736 870.9551,926.5576" id="Fill-173" fill="#4c8dc9"/>
            <path d="M169.7503,1041.2598 C168.4543,1028.9948 168.1773,1015.2048 184.3423,1023.8648 C184.1423,1031.6488 177.5863,1041.8598 169.7503,1041.2598" id="Fill-175" fill="#4c8dc9"/>
            <path d="M599.9388,1103.7754 C602.5218,1094.5254 615.3508,1080.6824 623.8628,1076.6624 C619.6398,1085.2734 608.9638,1099.6304 599.9388,1103.7754" id="Fill-177" fill="#4c8dc9"/>
            <path d="M224.7352,1092.2261 C218.0452,1098.9041 215.1552,1112.5801 204.5952,1112.9011 C205.6962,1105.5691 218.6102,1090.1441 224.7352,1092.2261" id="Fill-179" fill="#4c8dc9"/>
            <path d="M375.2147,967.7344 C368.9697,974.6444 366.4777,987.9324 357.0317,990.1764 C359.1297,981.2994 367.2157,972.4204 375.2147,967.7344" id="Fill-181" fill="#4c8dc9"/>
            <path d="M825.8726,960.1807 C820.5366,964.5927 818.9326,967.1387 814.5266,961.2867 C818.5106,956.0547 819.6346,954.9127 825.8726,960.1807" id="Fill-183" fill="#4c8dc9"/>
            <path d="M215.6882,999.9248 C215.2362,996.1038 214.7802,992.2838 214.3262,988.4638 C224.7932,989.3428 225.7212,997.1038 215.6882,999.9248" id="Fill-185" fill="#4c8dc9"/>
            <path d="M873.3355,1009.8003 C872.9485,1007.7773 874.5605,1006.8573 875.8125,1005.6233 C875.4865,1007.4373 874.6805,1009.1073 873.3355,1009.8003" id="Fill-187" fill="#4c8dc9"/>
            <path d="M923.3399,1087.7725 C923.3139,1085.1355 925.4599,1086.2665 923.2039,1087.6565 C923.2049,1087.6565 923.3399,1087.7725 923.3399,1087.7725" id="Fill-189" fill="#4c8dc9"/>
            <path d="M245.3284,1017.8027 C245.4764,1017.2007 245.6244,1016.5997 245.7724,1015.9977 C245.6844,1016.5817 245.1624,1017.2987 245.3284,1017.8027" id="Fill-191" fill="#4c8dc9"/>
            <path d="M375.2855,967.8071 L375.5475,967.4161 C375.5265,967.4811 375.0765,967.7391 375.2855,967.8071" id="Fill-193" fill="#4c8dc9"/>
            <path d="M460.2293,923.3779 L460.2503,922.8779 C460.5473,923.1439 460.7623,923.2599 460.2293,923.3779" id="Fill-195" fill="#2fc2ea"/>
            <path d="M832.3348,578.7642 C854.0808,571.2852 862.3308,596.7352 837.9358,596.7762 C835.5548,595.9962 834.3688,601.2962 829.7308,602.6502 C828.1818,620.8572 802.8258,613.9182 801.4128,632.0472 C788.3048,633.8332 779.0638,647.1172 768.8568,654.6282 C758.0898,666.3342 739.1898,670.6792 732.3888,684.9022 C726.3238,693.5992 700.0838,658.4102 664.5418,669.0092 C628.6878,676.0842 635.5048,741.5562 669.2708,750.1522 C646.4048,801.7172 615.7638,762.0082 605.1268,726.5612 C598.6848,699.1982 605.7088,672.7182 626.8038,654.4342 C663.4768,632.8272 707.5238,631.7472 742.0968,607.8822 C744.2748,607.1202 748.6348,615.0012 748.7978,606.2002 C775.8578,595.1952 802.1898,577.1002 832.3348,578.7642" id="Fill-197" fill="#545bbe"/>
            <path d="M907.3987,383.9326 C901.9077,415.3546 933.1677,561.8346 898.7307,561.525091 C895.0817,533.5776 898.3237,504.9626 897.5037,476.7766 C902.0267,459.1336 887.3727,382.2336 907.3987,383.9326" id="Fill-199" fill="#5556b8"/>
            <path d="M1163.3995,560.7915 C1163.8545,576.5885 1147.8845,586.2175 1136.7965,571.9335 C1125.1505,552.3285 1160.2955,530.5895 1163.3995,560.7915" id="Fill-201" fill="#2fc2ea"/>
            <path d="M1098.2662,809.9292 C1117.6842,809.3542 1106.9952,834.9602 1094.5252,833.4932 C1076.2692,830.7472 1078.5722,808.6982 1098.2662,809.9292" id="Fill-203" fill="#2fc2ea"/>
            <path d="M911.1597,781.6172 C929.8847,779.8292 925.1137,804.9042 910.5927,804.0652 C894.1437,803.9502 890.7427,779.6352 911.1597,781.6172" id="Fill-205" fill="#2fc2ea"/>
            <path d="M892.8985,644.168 C888.1555,666.905 863.3255,652.287 871.9525,634.223 C879.0605,624.662 893.2585,635.576 892.8985,644.168" id="Fill-207" fill="#2fc2ea"/>
            <path d="M1070.7145,503.8306 C1069.7115,496.8106 1072.3675,487.7716 1068.6825,481.7116 C1064.2885,479.9476 1066.8965,478.0186 1068.3265,476.0586 C1079.2315,474.4456 1081.3545,475.9116 1083.4285,485.8536 C1088.8075,499.4846 1088.0195,510.9726 1070.7145,503.8306" id="Fill-209" fill="#5556b8"/>
            <path d="M988.8277,595.0713 C979.0687,617.5853 959.9357,594.9223 967.2817,585.0043 C975.8137,578.6713 986.9297,582.8273 988.8277,595.0713" id="Fill-211" fill="#2fc2ea"/>
            <path d="M1060.3058,556.1655 C1075.1408,556.7455 1081.5368,579.4395 1065.2808,580.0135 C1055.9558,577.9155 1049.3428,561.4595 1060.3058,556.1655" id="Fill-213" fill="#2fc2ea"/>
            <path d="M854.0125,723.7358 C841.9005,723.7458 848.1045,695.3158 859.5655,702.6368 C869.8125,706.9518 864.1965,725.7998 854.0125,723.7358" id="Fill-215" fill="#2fc2ea"/>
            <path d="M1183.5135,688.6538 C1183.8295,699.5548 1165.9895,701.9078 1165.7275,690.3978 C1166.0785,677.1708 1183.0935,674.7368 1183.5135,688.6538" id="Fill-217" fill="#2fc2ea"/>
            <path d="M1087.174,503.9702 C1091.684,497.2412 1115.532,487.9132 1121.851,497.8692 C1113.813,510.3762 1099.118,501.1862 1087.174,503.9702" id="Fill-219" fill="#2fc2ea"/>
            <path d="M521.5921,195.7197 C520.3171,195.4607 519.0411,195.2007 517.7661,194.9407 C534.3651,209.6107 529.0171,173.8997 521.5921,195.7197 M542.9581,148.0307 C546.4861,157.0317 566.7621,170.5207 544.3231,173.4647 C536.4181,172.1577 537.4171,181.9677 531.6781,183.0677 C532.1281,187.7327 539.9761,187.1307 539.5521,191.7607 C535.2551,196.0757 535.2001,196.0437 537.0851,201.8857 C538.9951,216.2297 520.7801,194.5107 513.3481,202.3187 C513.6821,206.5707 516.2091,207.5267 520.0081,207.9867 C512.2201,211.8647 505.6661,215.1797 503.6451,204.0667 C507.4491,200.8637 508.6921,208.8807 510.2041,200.8377 C512.1391,190.8697 494.2521,200.9657 504.2951,188.1657 C509.5401,187.8207 514.3651,194.8657 518.7461,190.3057 C516.2131,184.5197 507.2591,185.5217 509.8441,177.7167 C526.7861,187.2357 528.6151,175.9807 540.7031,168.7557 C546.4901,161.8297 525.7351,157.3007 542.9581,148.0307" id="Fill-221" fill="#2fc2ea"/>
            <path d="M517.3808,349.7744 C515.0168,351.9914 515.1318,357.2564 508.8998,354.2924 C502.3038,351.6614 507.4848,349.5644 509.8258,346.4884 C507.9728,344.7594 505.1218,343.6134 503.7548,346.3274 C498.6918,362.6624 492.5928,339.9134 489.5358,333.8064 C493.0708,329.8094 499.6938,328.5634 500.1888,321.7624 C510.6248,319.3104 524.2858,339.5614 517.3808,349.7744" id="Fill-223" fill="#4c8dc9"/>
            <path d="M576.7403,128.1562 C572.2773,146.2922 582.7063,130.8262 590.5003,130.8122 C592.1063,133.4352 594.0933,136.9902 589.4883,138.6922 C579.2753,140.7442 593.3813,146.8032 588.2763,149.8392 C584.8133,151.3922 581.9633,157.8862 577.3883,153.7202 C573.5843,150.2562 567.1093,150.7322 565.0813,144.9302 C560.5443,143.6492 556.1853,150.2932 559.2633,142.1162 C557.4583,131.7152 565.4173,135.7532 569.7663,128.7982 C571.4373,124.7492 574.2183,126.3702 576.7403,128.1562" id="Fill-225" fill="#4c8dc9"/>
            <path d="M485.3145,172.7744 C495.1785,176.4834 477.4155,184.9864 471.7195,190.2284 C471.4615,198.1054 470.4465,209.6414 468.5905,217.2684 C460.8635,217.7964 463.4995,224.2214 462.1625,228.2724 C469.5375,229.9894 473.9265,230.7564 468.3335,244.8024 C466.8575,242.7084 465.6395,240.0104 464.0275,238.3524 C455.8425,244.3884 455.8275,224.8514 458.0175,219.2884 C460.4565,212.3864 469.2525,216.6954 467.1435,208.2514 C463.0475,196.2404 466.8775,177.1804 479.7755,175.2684 C484.7145,180.7434 482.7245,171.7354 485.3145,172.7744" id="Fill-227" fill="#2fc2ea"/>
            <path d="M467.2044,283.1099 C467.1074,279.0969 461.5894,276.3419 464.4864,271.5909 C464.4994,271.5699 463.7684,270.9039 463.3364,270.8339 C457.6894,269.9149 461.3554,268.5879 462.6834,266.2879 C465.6394,249.4339 476.1894,255.9229 489.3674,258.2519 C481.4024,265.3019 485.9664,269.2269 473.3714,261.2389 C474.4844,264.8839 474.9004,268.6439 479.2574,269.6149 C478.5174,277.6159 474.1964,285.7609 485.7584,279.8939 C486.3854,285.3039 472.4754,285.0879 467.2044,283.1099" id="Fill-229" fill="#4c8dc9"/>
            <path d="M476.6499,284.6821 C483.5329,285.5001 500.8249,265.4331 497.5089,281.2961 C484.1339,287.2121 484.1079,287.1521 485.8769,300.1051 C477.8439,300.7141 473.5509,304.9741 473.1969,313.0791 C439.3019,301.0271 489.2629,301.8761 476.6499,284.6821" id="Fill-231" fill="#2fc2ea"/>
            <path d="M755.0147,156.4229 C728.5607,149.0169 748.7877,160.9939 730.1087,155.6859 C724.4797,151.5589 730.2557,146.0609 717.6697,144.3979 C727.5117,138.0899 727.9877,137.7979 731.9987,144.3269 C736.7957,152.4809 737.7917,143.5729 739.8497,139.9159 C746.9157,140.1639 742.3157,148.1889 747.2807,150.6729 C753.6967,147.6659 753.4257,153.2579 755.0147,156.4229" id="Fill-233" fill="#4c8dc9"/>
            <path d="M510.9331,145.5718 C490.1021,138.9718 541.1191,104.8498 528.9601,136.1188 C525.4481,134.1928 519.8931,142.7918 517.7211,133.9428 C511.9801,134.1728 513.0441,141.5708 510.9331,145.5718" id="Fill-235" fill="#2fc2ea"/>
            <path d="M625.5738,94.7939 C618.6658,99.7579 617.7248,96.5869 617.6288,106.1949 C612.0478,120.1129 585.4578,83.0479 625.5738,94.7939" id="Fill-237" fill="#2fc2ea"/>
            <path d="M619.3703,130.0269 C625.9763,138.5679 620.0053,131.0309 616.2733,137.4779 C612.8823,142.5629 603.6613,134.8989 608.8593,131.2129 C613.6733,126.7109 634.4413,111.4149 628.9663,121.3649 C638.0733,129.0089 617.8793,126.0749 619.3703,130.0269" id="Fill-239" fill="#4c8dc9"/>
            <path d="M657.2521,116.4995 C657.8411,104.2055 670.7471,99.8515 670.1771,111.7655 C679.2471,110.3705 673.5431,117.2945 674.9381,120.2185 C667.8181,117.5145 668.6041,122.3565 661.3151,120.1945 C659.9071,119.0605 656.0521,118.8335 657.2521,116.4995" id="Fill-241" fill="#2fc2ea"/>
            <path d="M493.8476,393.7671 C497.5716,387.4031 498.0296,378.0651 505.4426,374.9121 C507.9946,380.1631 510.3526,388.2011 502.5746,391.5651 C497.8976,394.6241 498.1696,403.6531 493.8476,393.7671" id="Fill-243" fill="#4c8dc9"/>
            <path d="M601.3533,547.6523 C600.8623,545.1353 605.9773,541.7123 600.1233,539.8243 C600.7873,526.5753 610.6773,541.9133 612.8403,547.5593 C614.3573,551.2883 612.4473,552.2633 608.9173,550.0743 C605.8643,551.5103 603.6813,550.8563 601.3533,547.6523" id="Fill-245" fill="#4c8dc9"/>
            <path d="M1047.9249,473.9302 C1054.7329,474.6382 1061.5409,475.3462 1068.3379,476.0562 C1066.8959,478.0192 1064.2879,479.9482 1068.6809,481.7122 C1072.3689,487.2402 1043.9979,484.9902 1047.9249,473.9302" id="Fill-247" fill="#4c8dc9"/>
            <path d="M537.7661,162.0425 C532.8001,166.0295 528.9311,178.0695 521.3621,172.4345 C521.4371,163.3345 537.1661,147.9645 537.7661,162.0425" id="Fill-249" fill="#4c8dc9"/>
            <path d="M585.2845,109.209 C572.8525,116.407 572.1275,105.856 560.8365,104.961 C589.8135,94.439 561.1445,104.291 585.2845,109.209" id="Fill-251" fill="#2fc2ea"/>
            <path d="M510.9456,148.1475 C515.4886,150.6695 517.9986,178.0175 511.0186,168.7155 C502.5816,162.5585 512.9306,155.2215 510.9456,148.1475" id="Fill-253" fill="#2fc2ea"/>
            <path d="M469.8058,333.5889 C472.3508,334.3729 475.1048,336.2289 476.7188,332.2509 C483.6578,348.9209 468.2848,352.1009 469.8058,333.5889" id="Fill-255" fill="#4c8dc9"/>
            <path d="M693.9571,122.4717 C698.6631,123.6907 709.0711,119.3127 709.1041,125.7817 C701.3301,126.2477 675.2681,131.4227 693.9571,122.4717" id="Fill-257" fill="#2fc2ea"/>
            <path d="M552.952,480.0181 C552.727,489.0911 543.176,476.2871 541.894,472.7391 C546.41,466.9431 551.463,475.7311 552.952,480.0181" id="Fill-259" fill="#2fc2ea"/>
            <path d="M573.8539,487.8936 C577.0049,476.9496 588.7229,496.3286 579.3019,499.9726 C577.4859,495.9466 575.6699,491.9196 573.8539,487.8936" id="Fill-261" fill="#4c8dc9"/>
            <path d="M485.2334,240.5654 C495.3334,232.7584 495.6874,257.7964 485.5424,250.3944 C489.0604,247.0034 484.7794,243.8584 485.2334,240.5654" id="Fill-263" fill="#4c8dc9"/>
            <path d="M688.9634,110.3799 C688.5034,113.7849 680.6414,107.0529 677.8774,106.5219 C679.5264,103.1579 685.7414,109.6739 688.9634,110.3799" id="Fill-265" fill="#2fc2ea"/>
            <path d="M471.6745,232.1724 C461.0315,226.6694 470.6715,226.8194 477.3695,224.1554 C477.9255,228.2614 474.3765,229.8094 471.6745,232.1724" id="Fill-267" fill="#4c8dc9"/>
            <path d="M684.959,125.7007 C681.244,124.1347 673.077,126.5127 675.203,120.3907 C680.302,119.4317 683.219,120.6287 684.959,125.7007" id="Fill-269" fill="#2fc2ea"/>
            <path d="M657.2521,116.4995 C656.0491,118.8105 648.8101,122.4945 646.9731,119.8335 C647.0531,113.7535 653.0331,116.8225 657.2521,116.4995" id="Fill-271" fill="#4c8dc9"/>
            <path d="M479.2132,356.9873 C479.3772,356.9203 477.7232,350.2193 477.2362,348.0543 C481.1522,352.3913 486.8152,354.0953 479.2132,356.9873" id="Fill-273" fill="#4c8dc9"/>
            <path d="M1027.0997,438.2183 C1024.5467,436.7773 1021.9947,435.3363 1019.4417,433.8953 C1022.4457,434.5383 1027.0067,432.4243 1027.0997,438.2183" id="Fill-275" fill="#4c8dc9"/>
            <path d="M489.4747,252.356 C494.6767,252.577 490.9227,255.343 489.4347,258.201 C489.4487,256.252 489.4617,254.304 489.4747,252.356" id="Fill-277" fill="#4c8dc9"/>
            <path d="M1031.3551,439.8643 L1027.0571,438.1983 L1031.3551,439.8643 Z" id="Fill-279" fill="#4c8dc9"/>
            <path d="M1035.2692,442.0132 C1033.9632,441.2962 1032.6572,440.5792 1031.3512,439.8622 C1032.6562,440.5792 1033.9632,441.2962 1035.2692,442.0132" id="Fill-281" fill="#4c8dc9"/>
            <path d="M465.8567,316.8062 C466.5627,317.0452 466.6487,317.2432 466.1347,317.7992 C465.5107,317.5632 465.4617,317.3322 465.8567,316.8062" id="Fill-283" fill="#2fc2ea"/>
            <path d="M647.347,122.8345 C646.744,121.5635 644.373,119.7615 646.974,119.8345 C648.458,121.0225 648.007,121.3575 647.347,122.8345" id="Fill-285" fill="#4c8dc9"/>
            <path d="M702.774,704.4287 C670.088,704.1987 702.99,728.3917 678.758,738.4597 C648.386,742.1047 641.359,679.3537 673.088,682.0487 C686.711,676.8147 733.257,691.4557 702.774,704.4287" id="Fill-287" fill="#545bbe"/>
            <path d="M713.4976,691.6284 C641.3836,649.3924 636.7596,737.6154 678.7576,738.4604 C682.1676,745.0494 682.1276,744.9054 675.2956,746.8074 C656.5636,757.3784 647.9876,728.9394 640.1916,717.5764 C630.9156,628.4384 752.3286,683.4274 713.4976,691.6284" id="Fill-289" fill="#2fc2ea"/>
            <path d="M655.3128,839.0645 C667.3628,794.0135 715.3868,843.5735 670.0038,845.3305 C664.3808,838.0435 659.6958,858.2065 655.3128,839.0645" id="Fill-291" fill="#2fc2ea"/>
            <path d="M1027.4532,889.8892 C1032.0052,906.9732 1001.3282,910.5802 1005.1902,894.6292 C1004.8862,881.8202 1025.5572,875.5072 1027.4532,889.8892" id="Fill-293" fill="#2fc2ea"/>
            <path d="M1010.3087,949.4351 C1021.1767,956.0241 1020.4747,967.7551 1007.7087,971.4641 C985.8357,966.9621 989.0277,951.0001 1010.3087,949.4351" id="Fill-295" fill="#2fc2ea"/>
            <path d="M961.981,966.0449 C959.916,970.6619 950.968,974.9799 946.165,972.7879 C948.103,966.4739 958.489,954.2619 961.981,966.0449" id="Fill-297" fill="#7eeac9"/>
            <path d="M1054.8741,724.9521 C1057.3921,721.1411 1060.8121,718.0131 1055.5231,716.2731 C1051.7311,719.2601 1050.0301,720.5541 1054.8741,724.9521 M1053.5231,669.2061 C1054.1681,653.4631 1029.8231,655.9081 1031.1931,672.8001 C1030.5881,691.0731 1054.7631,685.0841 1053.5231,669.2061 M1084.0031,607.4081 C1241.6581,608.4491 1087.6831,823.5171 1007.4901,811.6221 C946.8891,741.2451 981.9471,607.7311 1084.0031,607.4081" id="Fill-299" fill="#4c8dc9"/>
            <path d="M727.0428,731.7197 C723.8838,725.9897 714.6518,727.4807 715.6708,735.1107 C717.3038,743.0897 728.3898,743.0087 727.0428,731.7197 M764.9498,755.7087 C755.6628,755.2357 756.8728,774.3637 762.7268,778.5917 C777.4238,786.1777 782.3588,753.5967 764.9498,755.7087 M713.4978,691.6287 C718.6798,692.8217 720.9218,689.5887 722.6458,685.5607 C726.3888,684.5247 731.6288,690.5677 732.3918,684.9047 C748.8878,664.9077 775.6578,651.1637 795.6828,632.9707 C808.3518,628.6157 789.0948,650.9047 788.5668,657.7817 C780.1228,679.6927 778.5328,702.5277 782.1768,725.6067 C780.7518,769.5067 853.3838,808.7867 817.8778,811.3037 C771.5208,831.2087 708.8278,822.6807 702.7628,763.0877 C695.4428,725.1527 693.5578,721.9017 713.4978,691.6287" id="Fill-301" fill="#4c8dc9"/>
            <path d="M1214.5677,801.9204 C1221.7417,801.8204 1227.6387,796.0344 1227.3597,789.3684 C1222.1067,763.3794 1180.4887,800.6334 1214.5677,801.9204 M1134.4557,862.1584 C1091.6117,863.9844 1208.1597,729.7854 1240.7917,738.0104 C1250.2677,735.6734 1264.4867,735.1224 1265.0597,747.9544 C1262.0167,764.8604 1280.3177,778.8164 1274.7937,794.0934 C1240.2627,834.9184 1187.1017,857.5034 1134.4557,862.1584" id="Fill-303" fill="#4c8dc9"/>
            <path d="M1161.1498,1015.6191 C1138.1258,1025.8771 1122.7728,984.6461 1116.4008,965.1521 C1113.8508,934.2521 1271.3058,954.9271 1246.2318,980.5341 C1222.0448,1001.0401 1194.6318,1016.4361 1161.1498,1015.6191" id="Fill-305" fill="#4c8dc9"/>
            <path d="M801.4144,632.0474 C802.8744,622.8804 806.7324,619.1784 815.7874,618.2634 C810.9994,622.8594 806.2064,627.4534 801.4144,632.0474" id="Fill-307" fill="#4c8dc9"/>
            <path d="M1161.3788,1015.8516 C1160.9938,1016.1346 1160.6078,1016.4176 1160.2228,1016.7006 C1160.6288,1016.4126 1160.9758,1015.3436 1161.3788,1015.8516" id="Fill-309" fill="#4c8dc9"/>
            <path d="M1283.2128,869.8184 C1283.5498,870.0754 1283.8878,870.3334 1284.2248,870.5894 C1283.5458,870.7784 1283.5088,869.8674 1283.2128,869.8184" id="Fill-311" fill="#4c8dc9"/>
            <path d="M1257.2789,721.8335 C1257.5659,722.1285 1257.8539,722.4235 1258.1409,722.7185 C1257.5599,722.8025 1257.2749,722.3125 1257.2789,721.8335" id="Fill-313" fill="#4c8dc9"/>
            <path d="M1161.8937,910.8267 C1156.4107,908.1527 1136.6587,898.9527 1150.0097,895.8417 C1153.1387,901.4867 1156.1357,895.5897 1159.5367,894.4647 C1173.0237,882.7437 1178.1687,911.7287 1161.8937,910.8267" id="Fill-315" fill="#2fc2ea"/>
            <path d="M1225.3173,904.0938 C1226.0083,915.5888 1213.8963,913.8378 1212.5703,904.3438 C1210.1613,893.9128 1225.8863,889.9628 1225.3173,904.0938" id="Fill-317" fill="#2fc2ea"/>
            <path d="M756.9593,546.4355 C764.0593,532.4115 749.8243,384.9875 769.7713,414.2365 C780.3623,431.7165 780.5843,646.7645 756.9593,546.4355" id="Fill-319" fill="#5556b8"/>
            <path d="M418.2259,477.333 C418.5499,466.917 416.9119,411.321 434.8119,438.442 C435.7929,459.599 436.2849,481.019 435.9699,502.211 C422.0559,534.49 415.5799,488.085 418.2259,477.333" id="Fill-321" fill="#5556b8"/>
            <path d="M472.2129,553.7114 C472.4159,544.1004 463.0589,483.6014 482.8939,509.9684 C484.8129,532.1974 492.4689,555.5874 490.3529,577.5874 C475.5919,600.2094 469.0719,561.8184 472.2129,553.7114" id="Fill-323" fill="#5556b8"/>
            <path d="M701.1817,550.5981 C698.4707,538.1181 703.4647,503.3891 717.3387,528.6471 C715.8007,543.4031 733.2097,584.6911 707.4747,581.3941 C695.8817,577.1991 705.5117,558.0721 701.1817,550.5981" id="Fill-325" fill="#5556b8"/>
            <path d="M786.8707,588.9531 C782.0977,595.9771 772.8197,593.3571 765.7467,598.4831 C735.0077,610.0401 774.1207,587.8081 786.8707,588.9531" id="Fill-327" fill="#2fc2ea"/>
            <path d="M739.2579,609.8403 C723.7809,624.8313 715.2049,615.9693 737.0509,607.3543 C737.2619,607.2353 738.4979,608.9693 739.2579,609.8403" id="Fill-329" fill="#2fc2ea"/>
            <path d="M704.9791,625.2046 C700.5881,626.6226 696.1981,628.0406 691.8151,629.4526 C696.2081,628.0326 700.5941,626.6186 704.9791,625.2046" id="Fill-331" fill="#2fc2ea"/>
            <path d="M718.2974,617.8643 C714.8464,620.0873 712.6244,624.8453 707.2984,623.1863 C708.8524,617.0403 714.1774,618.6963 718.2974,617.8643" id="Fill-333" fill="#2fc2ea"/>
            <path d="M690.8482,630.3833 C687.7952,631.3353 684.7432,632.2863 681.6992,633.2333 C684.7542,632.2803 687.8012,631.3313 690.8482,630.3833" id="Fill-335" fill="#2fc2ea"/>
            <path d="M748.7979,606.1997 C748.6349,615.0007 744.2749,607.1197 742.0969,607.8817 C744.3349,607.3187 746.5669,606.7597 748.7979,606.1997" id="Fill-337" fill="#2fc2ea"/>
            <path d="M673.0919,636.5205 C671.7889,638.4245 671.1289,639.6925 669.5989,637.2425 C670.7659,637.0025 671.9289,636.7615 673.0919,636.5205" id="Fill-339" fill="#2fc2ea"/>
            <path d="M790.8423,586.5034 C790.4493,586.7844 790.0573,587.0654 789.6713,587.3414 C790.0663,587.0594 790.4543,586.7814 790.8423,586.5034" id="Fill-341" fill="#2fc2ea"/>
            <path d="M750.8382,604.4214 C750.4242,604.7364 750.0092,605.0514 749.6002,605.3614 C750.0162,605.0444 750.4272,604.7324 750.8382,604.4214" id="Fill-343" fill="#2fc2ea"/>
            <path d="M676.9803,634.9478 C676.5213,635.0768 676.0613,635.2068 675.6093,635.3358 C676.0713,635.2058 676.5253,635.0768 676.9803,634.9478" id="Fill-345" fill="#2fc2ea"/>
            <path d="M666.6219,638.1899 C666.1879,638.3629 665.7549,638.5369 665.3279,638.7069 C665.5719,638.0379 665.9879,637.8969 666.6219,638.1899" id="Fill-347" fill="#2fc2ea"/>
            <path d="M149.2512,474.1592 C152.2022,574.1192 115.3532,439.3092 142.9572,436.8162 C152.8382,444.1062 148.5112,462.9162 149.2512,474.1592" id="Fill-349" fill="#5556b8"/>
            <path d="M224.2088,452.9272 C220.2518,440.3342 232.0768,417.0012 238.4878,438.2602 C239.6168,456.2712 239.0838,474.4552 239.3638,492.5192 C228.2898,528.6532 224.6198,460.9552 224.2088,452.9272" id="Fill-351" fill="#5556b8"/>
            <path d="M195.5797,478.1084 C196.7167,486.2884 196.2527,522.5394 185.4227,499.9104 C188.1437,480.5104 173.1207,449.3644 187.1187,435.7944 C203.5147,435.4954 194.8727,468.2744 195.5797,478.1084" id="Fill-353" fill="#5556b8"/>
            <path d="M153.2168,552.3901 C150.8768,563.1331 159.2198,583.7691 146.9418,588.6201 C133.1048,580.8261 142.4838,553.2971 138.9628,538.7161 C142.2138,516.0501 162.8578,540.9781 153.2168,552.3901" id="Fill-355" fill="#5556b8"/>
            <path d="M284.6693,456.5757 C286.5503,467.4437 279.1013,517.9547 270.2453,483.9777 C272.7343,469.4697 261.5813,442.8047 275.6023,434.6017 C286.5223,434.3457 282.4733,448.8717 284.6693,456.5757" id="Fill-357" fill="#5556b8"/>
            <path d="M333.171,461.7461 C334.384,470.7591 333.706,512.0321 321.111,489.1451 C320.294,473.1661 315.67,456.0981 319.054,440.3861 C331.314,425.1561 336.039,455.8801 333.171,461.7461" id="Fill-359" fill="#5556b8"/>
            <path d="M196.7081,555.1143 C195.0561,607.0363 178.3851,566.4353 180.9941,540.8653 C180.7131,536.4783 180.4561,531.0973 187.2791,530.8563 C201.1831,530.5673 193.0261,549.0823 196.7081,555.1143" id="Fill-361" fill="#5556b8"/>
            <path d="M424.4436,1023.043 C427.5906,1019.958 430.7376,1016.873 433.8836,1013.788 C435.2406,1016.485 426.6576,1024.606 424.4436,1023.043" id="Fill-363" fill="#7eeac9"/>
            <path d="M439.6393,1010.1235 C438.9553,1010.3995 438.2703,1010.6745 437.5853,1010.9505 C438.1293,1009.3305 438.3533,1008.3465 439.6393,1010.1235" id="Fill-365" fill="#7eeac9"/>
            <path d="M729.1761,1009.6416 C727.6771,1011.0296 726.6181,1015.7066 724.6131,1014.9696 C725.9811,1013.2006 728.2661,1011.3766 729.1761,1009.6416" id="Fill-367" fill="#7eeac9"/>
            <path d="M722.3865,1019.7993 C720.9855,1020.4753 719.4445,1021.1833 720.0035,1019.0403 C721.1175,1017.8933 721.8655,1018.0883 722.3865,1019.7993" id="Fill-369" fill="#7eeac9"/>
            <path d="M857.9254,438.0518 C860.7094,369.3298 847.8154,294.0578 859.1174,228.4958 C867.2044,247.5128 865.8844,496.1048 857.9254,438.0518" id="Fill-371" fill="#5556b8"/>
            <path d="M896.0494,328.5454 C898.9894,317.9584 887.0924,209.2054 907.0604,240.6994 C911.1864,260.9384 908.9884,405.4174 896.0494,328.5454" id="Fill-373" fill="#5556b8"/>
            <path d="M858.0865,452.0703 C870.9395,467.7603 859.1745,502.3113 862.8755,524.3873 C853.5965,508.6533 861.4805,474.0453 858.0865,452.0703" id="Fill-375" fill="#4c8dc9"/>
            <path d="M859.671,524.4194 C865.8,521.4484 864.412,548.9954 859.62,541.1694 C859.536,535.5864 859.631,530.0024 859.671,524.4194" id="Fill-377" fill="#2fc2ea"/>
            <path d="M862.5963,560.3042 C861.8873,556.4592 861.1683,552.6162 860.5423,548.7572 C863.2313,547.0812 864.3663,559.7832 862.5963,560.3042" id="Fill-379" fill="#2fc2ea"/>
            <path d="M857.9254,438.0518 C858.0984,439.2618 858.2714,440.4728 858.4464,441.6778 C858.2744,440.4658 858.1004,439.2588 857.9254,438.0518" id="Fill-381" fill="#4c8dc9"/>
            <path d="M942.4048,444.2661 C958.7978,442.2781 1006.9548,426.8161 1007.3288,451.1531 C998.5058,469.4711 1024.2508,497.5751 989.4888,495.5201 C979.3228,496.3941 917.6608,498.1231 952.6038,486.8251 C975.7128,478.9421 1011.9808,494.2761 997.8048,458.1461 C988.7508,444.0591 915.1238,461.6781 942.4048,444.2661" id="Fill-383" fill="#5556b8"/>
            <path d="M933.199,452.2246 C945.305,452.1706 957.412,452.1166 969.52,452.0626 C933.876,453.9006 941.799,452.8406 939.961,484.7936 C930.478,490.4576 935.75,459.6286 933.199,452.2246" id="Fill-385" fill="#4c8dc9"/>
            <path d="M942.4048,444.2661 C939.3128,446.0381 936.2208,447.8111 933.1298,449.5801 C933.0808,442.3261 938.0308,443.7981 942.4048,444.2661" id="Fill-387" fill="#4c8dc9"/>
            <path d="M623.0079,354.330646 C737.5489,353.3386 743.2679,169.6196 619.3579,172.4086 C506.4509,168.9426 497.5479,354.4376 623.0079,354.330646 M535.5429,207.1586 C540.8069,204.7646 542.6459,198.5196 546.2739,194.2646 C558.2149,190.1516 548.4319,185.5736 551.9939,178.6456 C562.2269,186.7686 562.0129,180.6676 575.2859,173.7066 C593.7759,165.5936 612.7469,163.5446 632.4989,163.6216 C719.4899,169.2136 756.3569,290.8166 685.9889,342.9206 C640.5369,381.1716 587.7019,362.4346 544.3809,336.9786 C535.7659,327.1336 536.8199,345.0286 528.7309,335.3856 C523.6639,329.5216 517.6889,314.9566 529.4469,325.3666 C528.6819,316.5726 531.2609,307.8976 526.0889,299.1356 C510.1949,270.7596 531.4879,236.8436 527.2899,211.4756 C530.5179,210.9526 535.8809,214.5056 535.5429,207.1586" id="Fill-389" fill="#5556b8"/>
            <path d="M599.4129,507.79 C588.5609,497.811 602.6689,500.964 598.1329,493.51 C569.4389,465.718 607.8089,481.225 613.0689,495.087 C613.8819,504.948 629.3119,505.993 626.0439,495.238 C623.7609,499.005 631.1699,497.697 632.5329,499.633 C632.9779,502.465 632.2999,506.276 633.8949,507.952 C644.3489,518.026 630.3519,533.46 621.2829,517.39 C618.6399,513.211 622.3079,516.813 622.5889,516.686 C635.2879,509.114 595.3739,497.929 599.4129,507.79" id="Fill-391" fill="#4c8dc9"/>
            <path d="M505.0877,259.1992 C503.3217,249.7672 495.7617,242.0772 497.2097,231.5462 C497.3327,225.2602 488.4047,227.8832 484.4457,229.5632 C487.1307,220.0312 500.4157,219.2662 498.9557,207.1712 C498.8567,206.3332 502.0047,205.1122 503.6437,204.0692 C506.0887,212.5662 506.8117,210.1972 512.4207,214.2582 C519.3807,218.7202 508.4687,226.5562 506.9307,217.7892 C506.8697,217.2242 505.5197,216.8022 504.7667,216.3132 C495.7607,234.5092 519.7017,221.3752 516.2867,230.7832 C515.7147,232.7802 518.8197,235.8272 520.2477,238.3872 C516.1177,238.4102 509.9417,235.5712 509.4517,241.7002 C508.2117,246.1742 514.3317,243.1042 517.0847,245.2332 C516.7597,248.7762 514.6177,252.8322 511.7717,253.9172 C514.8037,262.4902 509.3187,260.0272 505.0877,259.1992" id="Fill-393" fill="#4c8dc9"/>
            <path d="M505.0877,259.1992 C509.3187,260.0272 514.8037,262.4902 511.7737,253.9182 C517.9907,247.5772 515.2617,262.0652 516.5617,266.3852 C512.9867,266.4872 508.3887,265.1112 509.1257,271.4862 C506.2777,272.7832 509.6397,279.1182 504.6847,283.8232 C506.7037,290.8882 505.1427,297.6992 495.8877,292.3742 C493.1077,319.4382 471.9177,285.8472 497.5067,281.2972 C502.9017,275.3542 495.2827,261.0972 505.0877,259.1992" id="Fill-395" fill="#5556b8"/>
            <path d="M537.6979,405.7827 C540.9809,409.3537 539.3979,415.4967 536.1699,418.1027 C530.9529,419.9337 535.2569,421.7337 535.4649,423.7247 C535.7699,426.6517 536.7199,428.0887 539.7039,427.3377 C547.0469,425.4897 545.9959,429.2607 544.4319,433.9327 C544.4879,448.3937 532.8259,427.1287 525.8759,425.5257 C521.9179,421.7407 522.3569,413.5857 520.8659,408.3387 C530.6899,409.7757 527.2629,390.3797 537.6979,405.7827" id="Fill-397" fill="#5556b8"/>
            <path d="M516.8969,401.1519 C504.5249,394.7699 511.5229,386.6809 522.6219,392.0689 C521.7929,386.5779 528.6669,385.4569 526.0499,378.7529 C522.0909,381.4459 524.9449,374.3479 524.9169,372.3939 C532.7779,364.2819 537.1879,380.4949 530.1599,381.7289 C542.3549,401.0979 527.2189,390.6529 516.8969,401.1519" id="Fill-399" fill="#5556b8"/>
            <path d="M516.8969,401.1519 C521.9359,394.4969 531.9789,397.1029 535.5539,392.6909 C555.5279,381.1569 547.0179,420.4199 532.8919,400.4179 C528.6479,395.4399 524.3029,419.9689 516.8969,401.1519" id="Fill-401" fill="#2fc2ea"/>
            <path d="M632.4985,163.6177 C626.2865,163.1287 620.0765,166.6267 613.8745,163.6257 C615.3405,162.1907 618.4765,160.7607 614.7225,158.8287 C590.7445,159.3927 610.3825,147.7587 623.3585,146.0637 C622.8795,149.4767 615.1325,162.9757 621.9345,160.4217 C627.5205,151.4467 627.3235,160.1957 632.4985,163.6177" id="Fill-403" fill="#4c8dc9"/>
            <path d="M664.7626,146.2505 C658.9256,147.3975 653.2036,160.1305 648.9836,152.1595 C656.6196,149.3005 647.3686,145.2175 650.1206,140.3835 C651.8876,142.9155 658.8946,151.9315 660.3006,141.7215 C666.0236,130.4825 676.5046,154.5595 664.7626,146.2505" id="Fill-405" fill="#4c8dc9"/>
            <path d="M485.8768,300.105 C503.5558,307.886 457.5818,311.804 487.6398,314.076 C488.4888,334.02 455.7818,305.302 485.8768,300.105" id="Fill-407" fill="#4c8dc9"/>
            <path d="M647.347,122.8345 C650.408,119.0225 657.167,116.6845 661.316,120.1945 L661.203,120.0825 C659.633,124.5695 662.82,126.3855 665.741,128.5035 C668.382,133.7945 660.515,127.3925 657.529,127.3615 C650.403,125.8425 647.652,134.9595 647.347,122.8345" id="Fill-409" fill="#2fc2ea"/>
            <path d="M552.952,480.0181 C549.661,472.1011 545.03,471.6641 545.414,463.6971 C545.942,459.3301 548.64,456.3061 550.624,462.3121 C555.037,474.1051 569.768,476.4761 552.952,480.0181" id="Fill-411" fill="#5556b8"/>
            <path d="M516.0809,293.6362 C520.4929,295.5632 521.2009,303.5222 517.1449,305.1262 C510.4799,299.7252 509.7649,310.2212 503.0339,310.4272 C497.1899,304.0042 512.0909,296.6872 516.0809,293.6362" id="Fill-413" fill="#4c8dc9"/>
            <path d="M696.9747,164.1016 C701.2647,181.7496 677.3847,164.6396 690.1617,159.4066 C696.4207,152.1076 697.5427,157.7346 696.9747,164.1016" id="Fill-415" fill="#2fc2ea"/>
            <path d="M619.3703,130.0269 C617.5583,127.0849 627.8183,127.6759 630.5633,127.0139 C627.5333,133.8229 627.7463,140.6409 635.0563,143.9429 C632.8753,153.9319 620.3193,149.0299 624.7323,140.6399 C627.7363,133.1679 627.5843,132.7979 619.3703,130.0269" id="Fill-417" fill="#2fc2ea"/>
            <path d="M628.1439,471.6357 C642.9879,468.9177 631.5729,483.3687 622.0579,482.3177 C621.3219,478.2497 621.0559,467.5967 628.1439,471.6357" id="Fill-419" fill="#2fc2ea"/>
            <path d="M516.0809,293.6362 C510.5899,298.5462 501.0869,285.0322 506.9419,280.7972 C514.0489,283.2542 520.7179,283.9722 516.0809,293.6362" id="Fill-421" fill="#2fc2ea"/>
            <path d="M683.753,434.2031 C684.885,431.6831 689.031,419.8801 693.143,427.5821 C699.032,432.8371 681.932,446.0921 683.753,434.2031" id="Fill-423" fill="#2fc2ea"/>
            <path d="M599.2014,507.9966 C602.4084,509.5886 609.3244,521.0436 601.9674,519.8536 C598.4894,517.9866 596.5374,512.0366 590.6364,516.2626 C590.1634,516.6016 583.1344,512.3926 584.2034,506.9166 C588.0714,501.6476 591.0184,517.7476 599.2014,507.9966" id="Fill-425" fill="#4c8dc9"/>
            <path d="M653.0264,401.4565 C650.7954,406.3955 644.6904,411.6075 639.7034,408.0935 C642.1484,401.5135 646.1334,395.4875 653.0264,401.4565" id="Fill-427" fill="#2fc2ea"/>
            <path d="M545.7703,352.5215 C555.7173,356.2975 552.7773,362.8555 547.5273,366.7375 C540.2853,368.2615 547.0793,359.3845 542.3123,358.1525 C543.3253,356.5025 544.3393,354.8525 545.7703,352.5215" id="Fill-429" fill="#4c8dc9"/>
            <path d="M635.0554,143.9429 C623.7484,138.1979 628.8434,126.5409 639.7524,135.2059 C633.5764,137.6699 644.6674,145.2929 635.0554,143.9429" id="Fill-431" fill="#4c8dc9"/>
            <path d="M607.0223,392.0044 C612.5833,396.5694 613.8493,401.1564 609.2033,405.5774 C601.6203,406.3474 599.1193,396.8154 607.0223,392.0044" id="Fill-433" fill="#2fc2ea"/>
            <path d="M567.6249,349.7427 C571.6679,352.4517 574.5859,353.1837 570.4579,356.6997 C570.9989,359.4547 575.6359,362.1687 570.3239,364.6527 C557.4069,366.7257 569.9779,355.6707 567.6249,349.7427" id="Fill-435" fill="#2fc2ea"/>
            <path d="M710.3663,130.3364 C713.6423,134.5354 709.0343,141.4244 706.4223,145.3364 C702.3083,138.7684 705.4783,135.1764 710.3663,130.3364" id="Fill-437" fill="#4c8dc9"/>
            <path d="M720.2386,162.7803 C724.6556,170.2013 713.3266,169.4573 709.7896,173.2263 C707.0866,166.3453 714.6296,163.8693 720.2386,162.7803" id="Fill-439" fill="#2fc2ea"/>
            <path d="M533.9557,379.376 C534.2157,363.771 546.6887,377.614 540.9827,386.177 C539.4867,382.976 537.0357,380.958 533.9557,379.376" id="Fill-441" fill="#2fc2ea"/>
            <path d="M561.1804,477.6992 C561.3614,470.1942 577.2494,473.4562 575.2984,484.0402 C570.5944,481.9272 565.8874,479.8132 561.1804,477.6992" id="Fill-443" fill="#4c8dc9"/>
            <path d="M694.9571,141.3076 C689.8041,139.4776 693.3211,133.4186 695.4301,130.5826 C704.3991,129.4326 697.0791,137.2176 694.9571,141.3076" id="Fill-445" fill="#2fc2ea"/>
            <path d="M524.9175,372.3936 C525.2925,383.8446 511.9915,373.7066 516.8535,367.6706 C518.7615,360.4166 522.4915,370.7956 524.9175,372.3936" id="Fill-447" fill="#4c8dc9"/>
            <path d="M762.4442,192.146 C758.6842,195.267 756.6692,194.261 753.4652,191.454 C758.1892,186.171 759.4222,183.807 762.4442,192.146" id="Fill-449" fill="#2fc2ea"/>
            <path d="M721.67,171.3804 C727.76,174.4654 731.874,173.0854 731.803,179.2554 C725.696,180.9204 725.886,176.4984 721.67,171.3804" id="Fill-451" fill="#2fc2ea"/>
            <path d="M555.1429,398.02 C554.8639,385.93 558.3739,395.443 562.8149,399.597 C559.7189,401.646 556.2769,400.869 555.1429,398.02" id="Fill-453" fill="#2fc2ea"/>
            <path d="M517.085,245.2314 C514.344,243.1244 508.196,246.1454 509.451,241.7014 C511.533,233.9684 524.451,237.6154 517.085,245.2314" id="Fill-455" fill="#2fc2ea"/>
            <path d="M509.1259,271.4863 C507.7869,264.3433 518.1469,264.6503 517.6669,270.0513 C518.3999,278.3353 514.3469,273.0173 509.1259,271.4863" id="Fill-457" fill="#2fc2ea"/>
            <path d="M618.3998,537.8345 C615.4058,543.7465 613.0048,533.8385 613.0348,531.0375 C616.4488,524.8395 618.6758,533.4925 618.3998,537.8345" id="Fill-459" fill="#4c8dc9"/>
            <path d="M535.5427,207.1587 C535.8817,214.5057 530.5177,210.9527 527.2867,211.4787 C523.1257,211.3767 529.8737,201.5127 535.5427,207.1587" id="Fill-461" fill="#4c8dc9"/>
            <path d="M520.0078,207.9873 C516.2128,207.5173 513.6758,206.5813 513.3458,202.3163 C521.4798,199.4343 524.4838,199.2053 520.0078,207.9873" id="Fill-463" fill="#4c8dc9"/>
            <path d="M579.2371,431.9844 C581.3721,449.8024 567.0241,431.4924 579.2701,432.0114 L579.2371,431.9844 Z" id="Fill-465" fill="#2fc2ea"/>
            <path d="M487.6419,314.0752 C483.7939,313.2902 479.1339,314.4172 476.5729,310.7792 C480.1169,308.2912 496.6449,312.8092 487.6419,314.0752" id="Fill-467" fill="#2fc2ea"/>
            <path d="M572.8426,395.6196 C570.6596,393.2596 572.2386,390.6046 572.7526,387.9246 C575.0806,389.4156 575.3286,394.5566 572.8426,395.6196" id="Fill-469" fill="#2fc2ea"/>
            <path d="M525.7059,212.3491 C528.9779,210.1071 526.7519,218.9081 526.5739,221.2181 C521.6569,219.1831 518.7999,214.7431 525.7059,212.3491" id="Fill-471" fill="#2fc2ea"/>
            <path d="M491.3399,304.0063 C494.0409,300.7813 495.4259,296.1003 499.4469,300.4403 C497.6869,303.6023 494.5059,303.5543 491.3399,304.0063" id="Fill-473" fill="#4c8dc9"/>
            <path d="M517.3808,349.7744 C518.3688,345.9014 524.9398,344.3024 527.5198,346.7344 C524.9718,350.5234 521.2768,350.4824 517.3808,349.7744" id="Fill-475" fill="#2fc2ea"/>
            <path d="M531.9173,347.645 C535.9373,348.015 540.1223,350.077 534.5153,351.736 C532.8993,351.072 528.7183,348.969 531.9173,347.645" id="Fill-477" fill="#2fc2ea"/>
            <path d="M530.3154,348.8794 C526.8794,346.8364 526.0704,345.1784 529.4134,342.5124 C530.0424,344.7524 533.3934,347.5274 530.3154,348.8794" id="Fill-479" fill="#2fc2ea"/>
            <path d="M631.4016,149.9902 C632.4146,151.3762 635.9426,153.0472 633.2876,154.0752 C632.5726,152.7802 629.3836,150.9862 631.4016,149.9902" id="Fill-481" fill="#2fc2ea"/>
            <path d="M523.2117,320.9355 C522.9787,322.4675 522.7447,323.9985 522.5087,325.5185 C522.7407,323.9835 522.9767,322.4595 523.2117,320.9355" id="Fill-483" fill="#2fc2ea"/>
            <path d="M487.4782,319.7925 C488.6912,320.7915 489.9042,321.7895 491.1182,322.7885 C489.2472,321.9075 484.7852,322.3315 487.4782,319.7925" id="Fill-485" fill="#4c8dc9"/>
            <path d="M579.2698,432.0112 C579.6318,430.8472 579.0408,428.4102 580.7498,429.6972 C580.2858,430.4722 579.6278,431.2492 579.2698,432.0112" id="Fill-487" fill="#2fc2ea"/>
            <path d="M630.7215,121.6958 C630.1365,121.5858 629.5515,121.4758 628.9665,121.3648 C629.7905,120.9538 632.0895,120.1488 630.7215,121.6958" id="Fill-489" fill="#2fc2ea"/>
            <path d="M508.6049,273.6304 C506.0329,272.8604 506.2539,272.6654 508.7179,271.9584 C509.2339,272.5544 509.1969,273.1104 508.6049,273.6304" id="Fill-491" fill="#2fc2ea"/>
            <path d="M494.4662,294.0728 C494.9392,293.5078 495.4122,292.9418 495.8872,292.3758 C495.4142,292.9408 494.9402,293.5068 494.4662,294.0728" id="Fill-493" fill="#4c8dc9"/>
            <path d="M524.7034,379.5474 C525.1524,379.2824 525.6004,379.0174 526.0494,378.7524 C525.6154,379.3864 525.4984,380.3744 524.7034,379.5474" id="Fill-495" fill="#4c8dc9"/>
            <path d="M539.6788,411.7197 C539.4298,411.1577 539.6068,410.6367 540.1458,410.3567 C540.2858,411.0837 540.7888,411.6477 539.6788,411.7197" id="Fill-497" fill="#2fc2ea"/>
            <path d="M1066.4781,376.0454 C1066.6811,386.3624 1066.6721,386.3124 1076.4511,384.6404 C1083.8971,383.3834 1093.5771,386.7484 1091.2231,375.7584 C1090.9401,370.4254 1090.5131,366.6584 1083.3761,369.3134 C1077.7121,371.1114 1063.8321,364.4314 1066.4781,376.0454 M1077.6721,397.8854 C1061.6051,397.5364 1057.5301,394.7134 1056.8571,378.1394 C1050.5771,351.7764 1075.3351,356.7264 1093.8451,353.4364 C1114.7701,352.2174 1104.0171,410.3884 1077.6721,397.8854" id="Fill-499" fill="#5556b8"/>
            <path d="M1143.0519,419.02 C1154.1539,448.296 1131.1909,456.468 1106.0239,453.979 C1097.7629,453.189 1055.6099,458.365 1074.6479,444.453 C1091.2999,442.927 1107.9159,440.953 1124.5909,440.017 C1144.8389,442.371 1130.6639,427.477 1143.0519,419.02" id="Fill-501" fill="#5556b8"/>
            <path d="M1064.0504,430.019 C1056.6404,406.826 1121.5694,410.101 1134.8924,414.447 C1136.4294,431.559 1108.1094,420.124 1097.6224,424.468 C1085.9944,424.61 1073.9794,422.55 1064.0504,430.019" id="Fill-503" fill="#5556b8"/>
            <path d="M1064.0504,430.019 C1068.0124,430.75 1068.8234,439.252 1071.6974,442.588 C1075.7114,453.764 1058.7304,439.959 1064.0504,430.019" id="Fill-505" fill="#4c8dc9"/>
            <path d="M1130.8856,423.5234 C1133.2676,420.9594 1137.2916,419.1174 1134.8946,414.4534 C1149.4116,410.2834 1140.2786,430.5714 1130.8856,423.5234" id="Fill-507" fill="#2fc2ea"/>
            <path d="M578.4435,173.1909 C568.6455,174.9619 559.5265,177.6459 564.2795,163.0539 C565.9655,155.7789 569.9655,160.1149 572.8455,160.0049 C580.9355,159.1999 578.3645,167.8319 578.4435,173.1909" id="Fill-509" fill="#4c8dc9"/>
            <path d="M550.8762,179.334 C551.1972,182.335 549.6852,181.575 547.4312,180.994 C547.6402,178.254 548.5862,178.332 550.8762,179.334" id="Fill-511" fill="#2fc2ea"/>
            <path d="M558.6406,183.3618 C558.0176,184.0218 557.6706,186.0608 556.7566,184.9598 C557.2906,184.4038 558.5176,183.9688 558.6406,183.3618" id="Fill-513" fill="#4c8dc9"/>
            <path d="M555.4172,179.2344 C550.8922,179.9434 552.7422,175.3594 554.1082,175.1874 C555.4092,175.0294 554.9022,178.1384 555.4172,179.2344" id="Fill-515" fill="#4c8dc9"/>
            <path d="M545.9047,194.7573 C545.6977,194.5003 545.4917,194.2433 545.2847,193.9863 C545.7367,194.4243 546.6617,193.9643 545.9047,194.7573" id="Fill-517" fill="#2fc2ea"/>
            <path d="M562.496,182.4531 C562.034,182.6161 561.573,182.7781 561.118,182.9371 C561.582,182.7741 562.039,182.6141 562.496,182.4531" id="Fill-519" fill="#4c8dc9"/>
            <path d="M554.6791,175.0776 C554.2261,175.2526 553.9801,175.1266 553.9011,174.6466 C554.5351,174.2166 554.5901,174.4096 554.6791,175.0776" id="Fill-521" fill="#2fc2ea"/>
            <path d="M503.6438,204.0693 C495.2778,209.1283 500.7858,216.9743 486.8798,224.5693 C487.3838,220.7413 483.2968,212.9443 488.3388,211.9193 C496.4198,197.7683 470.9718,196.3453 480.7968,208.0103 C465.6098,213.2863 494.0498,224.8813 462.1608,228.2733 C463.4998,224.2213 460.8638,217.7973 468.5888,217.2673 C470.1298,206.8653 473.0888,196.6753 471.7188,190.2253 C478.2208,189.0983 488.1208,169.1043 492.3108,181.5833 C491.9528,190.9673 499.8388,183.1403 500.6168,188.7333 C500.4898,187.0763 499.8358,185.8473 501.8748,185.6493 C508.8408,187.9823 494.4848,195.2713 506.4138,196.0473 C512.4058,193.7583 510.9648,209.7393 505.6388,202.6923 C505.5698,202.6133 504.3348,203.5863 503.6438,204.0693" id="Fill-523" fill="#5556b8"/>
            <path d="M521.5926,195.7197 C521.3126,190.3367 528.5946,184.6117 529.1766,193.1927 C530.1276,198.5127 519.4326,200.1967 521.5926,195.7197" id="Fill-525" fill="#4c8dc9"/>
            <path d="M520.5464,197.0107 L517.7664,194.9407 C519.3004,195.5247 522.8614,195.0257 520.5464,197.0107" id="Fill-527" fill="#4c8dc9"/>
            <path d="M479.076,264.7632 C494.259,262.6822 488.338,286.6522 476.138,280.6832 C480.172,276.7202 478.918,269.9972 479.076,264.7632" id="Fill-529" fill="#2fc2ea"/>
            <path d="M485.8495,213.501 C486.1795,217.183 486.5095,220.864 486.8395,224.546 C485.9765,223.466 484.3715,222.381 484.3785,221.308 C484.2785,214.693 465.4305,216.193 480.7995,208.007 C481.7315,210.528 480.0685,215.433 485.8495,213.501" id="Fill-531" fill="#4c8dc9"/>
            <path d="M485.7573,279.8945 C486.8013,275.8475 487.8463,271.8015 488.8883,267.7535 C494.7693,273.2845 492.8373,277.4005 485.7573,279.8945" id="Fill-533" fill="#5556b8"/>
            <path d="M484.8084,163.7192 C486.9874,162.3402 488.5314,158.1632 490.8774,161.5902 C488.7064,163.2972 487.1194,167.0942 484.8084,163.7192" id="Fill-535" fill="#5556b8"/>
            <path d="M500.3535,186.0146 C500.4415,186.9206 500.5285,187.8266 500.6165,188.7326 C500.5445,187.8296 500.3755,186.8996 500.3535,186.0146" id="Fill-537" fill="#2fc2ea"/>
            <path d="M502.5385,185.6958 L502.1685,186.1838 C501.7755,185.6278 501.9145,185.6178 502.5385,185.6958" id="Fill-539" fill="#2fc2ea"/>
            <path d="M472.0417,193.9614 C472.9747,194.5854 473.9077,195.2084 474.8397,195.8324 C471.7877,197.0944 470.6957,197.6224 472.0417,193.9614" id="Fill-541" fill="#4c8dc9"/>
            <path d="M476.6499,284.6821 C480.4539,292.6841 479.2069,296.7521 472.5549,298.0541 C462.9409,292.1441 463.2499,279.6991 476.6499,284.6821" id="Fill-543" fill="#5556b8"/>
            <path d="M479.2132,356.9873 C480.6962,356.1133 482.1782,355.2403 483.6632,354.3653 C484.8352,359.7403 480.7072,356.1303 479.2132,356.9873" id="Fill-545" fill="#5556b8"/>
            <path d="M1053.5228,669.2065 C1054.7608,685.0835 1030.5878,691.0735 1031.1908,672.7985 C1029.8248,655.9085 1054.1688,653.4635 1053.5228,669.2065" id="Fill-547" fill="#2fc2ea"/>
            <path d="M1054.8741,724.9521 C1050.0301,720.5561 1051.7321,719.2561 1055.5241,716.2731 C1060.8121,718.0171 1057.3921,721.1381 1054.8741,724.9521" id="Fill-549" fill="#545bbe"/>
            <path d="M764.9498,755.709 C782.3578,753.599 777.4238,786.176 762.7278,778.594 C756.8688,774.368 755.6658,755.235 764.9498,755.709" id="Fill-551" fill="#2fc2ea"/>
            <path d="M727.0428,731.7197 C728.3908,743.0087 717.3028,743.0907 715.6698,735.1097 C714.6518,727.4827 723.8888,725.9857 727.0428,731.7197" id="Fill-553" fill="#2fc2ea"/>
            <path d="M1214.5677,801.9204 C1180.4837,800.6254 1222.1147,763.3854 1227.3617,789.3684 C1227.6387,796.0344 1221.7417,801.8204 1214.5677,801.9204" id="Fill-555" fill="#2fc2ea"/>
            <path d="M523.9704,407.3223 C525.5154,409.0443 524.5474,408.7253 522.8094,408.4783 C523.1874,408.0843 523.5744,407.6983 523.9704,407.3223" id="Fill-557" fill="#2fc2ea"/>
            <path d="M479.6261,202.1821 C485.0121,202.7501 484.0291,204.9711 481.0621,207.7071 C479.6571,205.6631 474.9731,202.4781 479.6261,202.1821" id="Fill-559" fill="#4c8dc9"/>
            <path d="M485.5934,199.4004 C484.1084,199.5664 482.6244,199.7334 481.1394,199.8994 C482.6244,199.7334 484.1084,199.5674 485.5934,199.4004" id="Fill-561" fill="#4c8dc9"/>
            <path d="M487.0774,212.4072 C487.5014,212.2412 487.9254,212.0752 488.3454,211.9142 C487.9194,212.0822 487.4984,212.2442 487.0774,212.4072" id="Fill-563" fill="#4c8dc9"/>
        </g>
    </g>
</svg>
